<svg width="16" height="16" viewBox="0 0 16 16" xmlns="http://www.w3.org/2000/svg">
<path fill-rule="evenodd" clip-rule="evenodd" d="M12.75 7.5C13.7165 7.5 14.5 6.7165 14.5 5.75L14.5 3.25C14.5 2.2835 13.7165 1.5 12.75 1.5L10.25 1.5C9.2835 1.5 8.5 2.2835 8.5 3.25L8.5 5.75C8.5 6.7165 9.2835 7.5 10.25 7.5L12.75 7.5ZM13 5.75C13 5.88807 12.8881 6 12.75 6L10.25 6C10.1119 6 10 5.88807 10 5.75L10 3.25C10 3.11193 10.1119 3 10.25 3L12.75 3C12.8881 3 13 3.11193 13 3.25L13 5.75Z" />
<path fill-rule="evenodd" clip-rule="evenodd" d="M12.75 14.5C13.7165 14.5 14.5 13.7165 14.5 12.75L14.5 10.25C14.5 9.2835 13.7165 8.5 12.75 8.5L10.25 8.5C9.2835 8.5 8.5 9.2835 8.5 10.25L8.5 12.75C8.5 13.7165 9.2835 14.5 10.25 14.5L12.75 14.5ZM13 12.75C13 12.8881 12.8881 13 12.75 13L10.25 13C10.1119 13 10 12.8881 10 12.75L10 10.25C10 10.1119 10.1119 10 10.25 10L12.75 10C12.8881 10 13 10.1119 13 10.25L13 12.75Z" />
<path fill-rule="evenodd" clip-rule="evenodd" d="M7.5 12.75C7.5 13.7165 6.7165 14.5 5.75 14.5L3.25 14.5C2.2835 14.5 1.5 13.7165 1.5 12.75L1.5 10.25C1.5 9.2835 2.2835 8.5 3.25 8.5L5.75 8.5C6.7165 8.5 7.5 9.2835 7.5 10.25L7.5 12.75ZM5.75 13C5.88807 13 6 12.8881 6 12.75L6 10.25C6 10.1119 5.88807 10 5.75 10L3.25 10C3.11193 10 3 10.1119 3 10.25L3 12.75C3 12.8881 3.11193 13 3.25 13L5.75 13Z" />
<path fill-rule="evenodd" clip-rule="evenodd" d="M5.75 7.5C6.7165 7.5 7.5 6.7165 7.5 5.75L7.5 3.25C7.5 2.2835 6.7165 1.5 5.75 1.5L3.25 1.5C2.2835 1.5 1.5 2.2835 1.5 3.25L1.5 5.75C1.5 6.7165 2.2835 7.5 3.25 7.5L5.75 7.5ZM6 5.75C6 5.88807 5.88807 6 5.75 6L3.25 6C3.11193 6 3 5.88807 3 5.75L3 3.25C3 3.11193 3.11193 3 3.25 3L5.75 3C5.88807 3 6 3.11193 6 3.25L6 5.75Z" />
</svg>
