<svg xmlns="http://www.w3.org/2000/svg" width="14" height="14" viewBox="0 0 14 14" fill="none">
    <path fill-rule="evenodd" clip-rule="evenodd"
        d="M12.0575 3.69253C12.1803 3.81558 12.2494 3.98238 12.2494 4.15628C12.2494 4.33019 12.1803 4.49698 12.0575 4.62003L5.71374 10.9638C5.59069 11.0866 5.4239 11.1557 5.24999 11.1557C5.07609 11.1557 4.90928 11.0866 4.78624 10.9638L1.94249 8.12003C1.82657 7.99563 1.76347 7.83109 1.76646 7.66107C1.76946 7.49106 1.83833 7.32885 1.95857 7.20861C2.07881 7.08837 2.24102 7.0195 2.41104 7.0165C2.58105 7.0135 2.74558 7.07661 2.86999 7.19253L5.24999 9.57253L11.13 3.69253C11.253 3.56964 11.4198 3.50061 11.5937 3.50061C11.7676 3.50061 11.9345 3.56964 12.0575 3.69253Z"
        fill="#F5F6F7" />
</svg>