<svg width="44" height="44" viewBox="0 0 44 44" fill="none" xmlns="http://www.w3.org/2000/svg">
<path fill-rule="evenodd" clip-rule="evenodd" d="M1.83334 22C1.83334 10.8622 10.8623 1.83331 22 1.83331C33.1378 1.83331 42.1667 10.8622 42.1667 22C42.1667 33.1377 33.1378 42.1666 22 42.1666C10.8623 42.1666 1.83334 33.1377 1.83334 22ZM31.6806 17.0139C32.2176 16.4769 32.2176 15.6063 31.6806 15.0694C31.1436 14.5324 30.273 14.5324 29.7361 15.0694L18.7917 26.0138L14.2639 21.486C13.727 20.9491 12.8564 20.9491 12.3194 21.486C11.7824 22.023 11.7824 22.8936 12.3194 23.4306L17.8194 28.9306C18.3564 29.4676 19.227 29.4676 19.764 28.9306L31.6806 17.0139Z" fill="#27C6A2"/>
</svg>
