<svg xmlns="http://www.w3.org/2000/svg" width="64" height="64" viewBox="0 0 64 64" fill="none">
  <path d="M46.0808 24.7476C46.8619 23.9666 46.8619 22.7002 46.0808 21.9192C45.2998 21.1382 44.0335 21.1382 43.2524 21.9192L27.3333 37.8383L20.7475 31.2525C19.9665 30.4715 18.7001 30.4715 17.9191 31.2525C17.138 32.0336 17.138 33.2999 17.9191 34.081L25.9191 42.081C26.7001 42.862 27.9665 42.862 28.7475 42.081L46.0808 24.7476Z" fill="#27C6A2"/>
  <path fill-rule="evenodd" clip-rule="evenodd" d="M32 2.66675C15.7996 2.66675 2.66663 15.7997 2.66663 32.0001C2.66663 48.2004 15.7996 61.3334 32 61.3334C48.2003 61.3334 61.3333 48.2004 61.3333 32.0001C61.3333 15.7997 48.2003 2.66675 32 2.66675ZM6.66663 32.0001C6.66663 18.0089 18.0087 6.66675 32 6.66675C45.9912 6.66675 57.3333 18.0089 57.3333 32.0001C57.3333 45.9913 45.9912 57.3334 32 57.3334C18.0087 57.3334 6.66663 45.9913 6.66663 32.0001Z" fill="#27C6A2"/>
</svg>