<svg xmlns="http://www.w3.org/2000/svg" width="16" height="16" viewBox="0 0 16 16" fill="none">
  <path fill-rule="evenodd" clip-rule="evenodd" d="M2.75 14C1.7835 14 1 13.2165 1 12.25L1 9.74998C1 9.33576 1.33579 8.99998 1.75 8.99998C2.16421 8.99998 2.5 9.33576 2.5 9.74998L2.5 12.25C2.5 12.388 2.61193 12.5 2.75 12.5H13.25C13.3881 12.5 13.5 12.388 13.5 12.25V9.74998C13.5 9.33576 13.8358 8.99998 14.25 8.99998C14.6642 8.99998 15 9.33576 15 9.74998V12.25C15 13.2165 14.2165 14 13.25 14H2.75Z" fill="#F5F6F7"/>
  <path d="M7.25 7.68932L7.25 2C7.25 1.58579 7.58578 1.25 8 1.25C8.41421 1.25 8.75 1.58579 8.75 2L8.75 7.68932L10.7197 5.71965C11.0126 5.42675 11.4874 5.42675 11.7803 5.71965C12.0732 6.01254 12.0732 6.48741 11.7803 6.78031L8.53033 10.0303C8.23744 10.3232 7.76256 10.3232 7.46967 10.0303L4.21967 6.78031C3.92678 6.48741 3.92678 6.01254 4.21967 5.71965C4.51256 5.42675 4.98744 5.42675 5.28033 5.71965L7.25 7.68932Z" fill="#F5F6F7"/>
</svg>