<svg width="16" height="16" viewBox="0 0 16 16" fill="none" xmlns="http://www.w3.org/2000/svg">
  <g id="Group 1">
    <path id="White" fill-rule="evenodd" clip-rule="evenodd" d="M16 0L8 4.8L0 9.6L0 16L8 11.2V16L16 11.2V0Z" fill="white"/>
    <path id="Red" fill-rule="evenodd" clip-rule="evenodd" d="M16 0L8 4.8V6.4L0 11.2L0 12.8L8 8V9.6L0 14.4L0 16L8 11.2V12.8L16 8V6.4L8 11.2V9.6L16 4.8V3.2L8 8V6.4L16 1.6V0ZM8 14.4L16 9.6V11.2L8 16V14.4Z" fill="#E1275F"/>
    <path id="Blue" d="M0 4.8L8 0V4.8L0 9.6L0 4.8Z" fill="#1367D0"/>
  </g>
</svg>
