<svg xmlns="http://www.w3.org/2000/svg" width="14" height="14" viewBox="0 0 14 14">
  <path fill-rule="evenodd" clip-rule="evenodd" d="M6.50032 1.33412C6.66487 1.31982 6.83156 1.3125 7.00012 1.3125C7.16868 1.3125 7.33538 1.31982 7.49992 1.33412C7.53098 1.33682 7.59453 1.3663 7.61958 1.46206L7.87251 2.42919C8.0008 2.91967 8.35302 3.27492 8.74513 3.46914C8.89695 3.54434 9.04333 3.62909 9.18342 3.72263C9.54795 3.96603 10.0322 4.09356 10.5214 3.95935L11.4864 3.69456C11.5817 3.6684 11.6391 3.70852 11.6571 3.73413C11.8483 4.00617 12.0161 4.29558 12.1579 4.59947C12.1708 4.62735 12.1772 4.69693 12.1068 4.76653L11.3938 5.47101C11.0338 5.82681 10.9018 6.30882 10.9296 6.74553C10.9349 6.82959 10.9376 6.91442 10.9376 7C10.9376 7.08558 10.9349 7.17041 10.9296 7.25447C10.9018 7.69118 11.0338 8.17319 11.3938 8.52899L12.1068 9.23344C12.1772 9.30309 12.1708 9.37265 12.1579 9.40056C12.0161 9.70445 11.8483 9.99381 11.6571 10.2659C11.6391 10.2915 11.5817 10.3316 11.4864 10.3055L10.5214 10.0406C10.0322 9.9064 9.54795 10.034 9.18342 10.2774C9.04333 10.3709 8.89695 10.4556 8.74513 10.5309C8.35302 10.725 8.0008 11.0803 7.87251 11.5708L7.61958 12.538C7.59453 12.6337 7.53098 12.6632 7.49992 12.6659C7.33538 12.6802 7.16868 12.6875 7.00012 12.6875C6.83156 12.6875 6.66487 12.6802 6.50032 12.6659C6.46926 12.6632 6.40571 12.6337 6.38067 12.538L6.12771 11.5707C5.99944 11.0803 5.64722 10.725 5.25513 10.5309C5.10331 10.4556 4.95696 10.3709 4.81688 10.2774C4.45234 10.034 3.96808 9.9064 3.47892 10.0406L2.5138 10.3055C2.41851 10.3316 2.3611 10.2915 2.34309 10.2659C2.15193 9.99381 1.98408 9.70445 1.84237 9.40056C1.82937 9.37265 1.82299 9.30309 1.89342 9.23344L2.60644 8.52894C2.96652 8.17315 3.0985 7.69114 3.07071 7.25443C3.06537 7.1704 3.06265 7.08556 3.06265 7C3.06265 6.91444 3.06537 6.8296 3.07071 6.74557C3.0985 6.30886 2.96652 5.82685 2.60644 5.47106L1.89342 4.76653C1.82299 4.69694 1.82937 4.62736 1.84237 4.59948C1.98408 4.29558 2.15193 4.00617 2.3431 3.73413C2.3611 3.70852 2.41851 3.66841 2.5138 3.69456L3.47892 3.95936C3.96808 4.09357 4.45234 3.96604 4.81688 3.72263C4.95696 3.62911 5.10331 3.54435 5.25513 3.46916C5.64721 3.27494 5.99944 2.91968 6.12771 2.42922L6.38067 1.46206C6.40571 1.3663 6.46926 1.33682 6.50032 1.33412ZM7.00012 0C6.79357 0 6.58895 0.00896438 6.38665 0.0265506C5.73672 0.08305 5.25879 0.564412 5.11087 1.12996L4.85792 2.09712C4.84264 2.15555 4.78888 2.23541 4.67256 2.29303C4.4699 2.39341 4.27472 2.50645 4.08805 2.6311C3.98044 2.70294 3.88454 2.70965 3.82621 2.69364L2.86109 2.42883C2.29826 2.27441 1.64361 2.44675 1.26923 2.97951C1.03409 3.31412 0.827431 3.67039 0.652843 4.04479C0.377246 4.63582 0.555592 5.28977 0.970917 5.70015L1.68394 6.40468C1.72693 6.44717 1.76906 6.53342 1.76086 6.66224C1.75375 6.774 1.75015 6.88663 1.75015 7C1.75015 7.11337 1.75375 7.226 1.76086 7.33776C1.76906 7.46658 1.72693 7.55283 1.68394 7.59532L0.970917 8.29986C0.555591 8.71023 0.377246 9.36416 0.652843 9.95522C0.82743 10.3296 1.03409 10.6859 1.26923 11.0204C1.64361 11.5532 2.29826 11.7256 2.86109 11.5712L3.82621 11.3064C3.88454 11.2904 3.98045 11.297 4.08805 11.3689C4.27472 11.4936 4.4699 11.6066 4.67256 11.707C4.78888 11.7646 4.84264 11.8444 4.85792 11.9029L5.11087 12.87C5.25879 13.4356 5.73672 13.917 6.38665 13.9735C6.58895 13.9911 6.79357 14 7.00012 14C7.20667 14 7.41129 13.9911 7.61358 13.9735C8.26352 13.917 8.74145 13.4356 8.88933 12.87L9.1423 11.9029C9.15761 11.8444 9.21133 11.7646 9.32771 11.707C9.53036 11.6066 9.72557 11.4936 9.91221 11.3689C10.0198 11.297 10.1157 11.2904 10.1741 11.3064L11.1391 11.5712C11.702 11.7256 12.3566 11.5532 12.731 11.0205C12.9661 10.6859 13.1728 10.3296 13.3474 9.95522C13.623 9.36416 13.4447 8.71024 13.0293 8.29986L12.3164 7.59537C12.2733 7.55289 12.2312 7.46662 12.2394 7.3378C12.2465 7.22603 12.2501 7.11339 12.2501 7C12.2501 6.88661 12.2465 6.77397 12.2394 6.6622C12.2312 6.53338 12.2733 6.44711 12.3164 6.40463L13.0293 5.70014C13.4447 5.28976 13.623 4.63581 13.3474 4.04478C13.1728 3.67038 12.9661 3.31412 12.731 2.97951C12.3566 2.44674 11.702 2.27441 11.1391 2.42883L10.1741 2.69363C10.1157 2.70963 10.0198 2.70294 9.91221 2.63109C9.72557 2.50644 9.53036 2.39339 9.32771 2.293C9.21133 2.23539 9.15761 2.15553 9.1423 2.09709L8.88933 1.12996C8.74145 0.56441 8.26352 0.0830485 7.61358 0.0265498C7.41129 0.00896411 7.20667 0 7.00012 0ZM8.31262 7C8.31262 7.72488 7.725 8.3125 7.00012 8.3125C6.27525 8.3125 5.68762 7.72488 5.68762 7C5.68762 6.27512 6.27525 5.6875 7.00012 5.6875C7.725 5.6875 8.31262 6.27512 8.31262 7ZM9.62512 7C9.62512 8.44974 8.44987 9.625 7.00012 9.625C5.55038 9.625 4.37512 8.44974 4.37512 7C4.37512 5.55026 5.55038 4.375 7.00012 4.375C8.44987 4.375 9.62512 5.55026 9.62512 7Z" />
</svg>