<svg width="16" height="16" viewBox="0 0 16 16" xmlns="http://www.w3.org/2000/svg">
  <path fill-rule="evenodd" clip-rule="evenodd" d="M0.666504 4.66667C0.666504 4.29848 0.964981 4 1.33317 4H4.6665C4.67478 4 4.68305 4.00015 4.69132 4.00046C5.88771 4.04503 7.03889 4.44618 7.99984 5.14593C8.96078 4.44618 10.112 4.04503 11.3084 4.00046C11.3166 4.00015 11.3249 4 11.3332 4H14.6665C15.0347 4 15.3332 4.29848 15.3332 4.66667V8C15.3332 9.06087 14.9117 10.0783 14.1616 10.8284C13.4146 11.5754 12.4026 11.9964 11.3466 12C10.2729 12.0426 9.24665 12.4545 8.44132 13.1662C8.18918 13.389 7.8105 13.389 7.55835 13.1662C6.75303 12.4545 5.72681 12.0426 4.65312 12C3.59709 11.9964 2.58507 11.5754 1.83808 10.8284C1.08793 10.0783 0.666504 9.06087 0.666504 8V4.66667ZM1.99984 5.33333V8C1.99984 8.70724 2.28079 9.38552 2.78089 9.88562C3.28098 10.3857 3.95926 10.6667 4.6665 10.6667C4.67478 10.6667 4.68305 10.6668 4.69132 10.6671C5.88771 10.7117 7.03889 11.1129 7.99984 11.8126C8.96078 11.1129 10.112 10.7117 11.3084 10.6671C11.3166 10.6668 11.3249 10.6667 11.3332 10.6667C12.0404 10.6667 12.7187 10.3857 13.2188 9.88562C13.7189 9.38552 13.9998 8.70724 13.9998 8V5.33333H11.346C10.2725 5.37608 9.24651 5.78793 8.44132 6.49954C8.18918 6.72238 7.8105 6.72238 7.55835 6.49954C6.75317 5.78793 5.72716 5.37608 4.65368 5.33333H1.99984Z" />
  <path fill-rule="evenodd" clip-rule="evenodd" d="M3.3335 7.33317C3.3335 6.96498 3.63197 6.6665 4.00016 6.6665C4.55634 6.6665 5.18472 6.7564 5.69892 7.04207C6.2532 7.34999 6.66683 7.88949 6.66683 8.6665C6.66683 9.03469 6.36835 9.33317 6.00016 9.33317L5.98098 9.33317C5.66278 9.33318 5.34766 9.33319 5.0698 9.31003C4.78859 9.2866 4.48099 9.23561 4.20202 9.09612C3.89901 8.94461 3.66297 8.70555 3.51596 8.37476C3.37924 8.06715 3.3335 7.71206 3.3335 7.33317Z" />
  <path fill-rule="evenodd" clip-rule="evenodd" d="M10.3014 7.04207C10.8156 6.7564 11.444 6.6665 12.0002 6.6665C12.3684 6.6665 12.6668 6.96498 12.6668 7.33317C12.6668 7.71206 12.6211 8.06715 12.4844 8.37476C12.3374 8.70555 12.1013 8.94461 11.7983 9.09612C11.5193 9.23561 11.2117 9.2866 10.9305 9.31003C10.6527 9.33319 10.3375 9.33318 10.0193 9.33317L10.0002 9.33317C9.63197 9.33317 9.3335 9.03469 9.3335 8.6665C9.3335 7.88949 9.74713 7.34999 10.3014 7.04207Z" />
</svg>
