<svg width="14" height="14" viewBox="0 0 14 14" xmlns="http://www.w3.org/2000/svg">
  <path fill-rule="evenodd" clip-rule="evenodd" d="M6.80329 2.86566C6.68737 2.99006 6.62425 3.15461 6.62725 3.32462C6.63025 3.49463 6.69913 3.65684 6.81936 3.77708C6.9396 3.89731 7.10181 3.96619 7.27182 3.96919C7.44183 3.97219 7.60638 3.90908 7.73079 3.79316L8.82454 2.69941C8.98711 2.53682 9.18013 2.40784 9.39258 2.31985C9.60503 2.23185 9.83271 2.18656 10.0627 2.18656C10.2926 2.18656 10.5203 2.23185 10.7327 2.31985C10.9452 2.40784 11.1382 2.53682 11.3008 2.69941C11.4634 2.86201 11.5923 3.05503 11.6804 3.26746C11.7683 3.4799 11.8136 3.7076 11.8136 3.93754C11.8136 4.16748 11.7683 4.39516 11.6804 4.6076C11.5923 4.82004 11.4634 5.01306 11.3008 5.17566L9.11329 7.36316C8.95071 7.52587 8.75777 7.65495 8.5453 7.74301C8.33285 7.83108 8.10514 7.87641 7.87516 7.87641C7.64518 7.87641 7.41746 7.83108 7.20501 7.74301C6.99257 7.65495 6.79956 7.52587 6.63704 7.36316C6.51263 7.24724 6.34808 7.18413 6.17807 7.18713C6.00806 7.19013 5.84585 7.259 5.72561 7.37924C5.60538 7.49948 5.5365 7.66169 5.5335 7.8317C5.5305 8.00171 5.59362 8.16626 5.70954 8.29066C5.99392 8.57507 6.33154 8.8007 6.70312 8.95461C7.07469 9.10853 7.47296 9.18771 7.87516 9.18771C8.27735 9.18771 8.67562 9.10853 9.04722 8.95461C9.41875 8.8007 9.75641 8.57507 10.0408 8.29066L12.2283 6.10316C12.8026 5.5288 13.1253 4.7498 13.1253 3.93754C13.1253 3.12527 12.8026 2.34627 12.2283 1.77191C11.6539 1.19755 10.8749 0.874878 10.0627 0.874878C9.2504 0.874878 8.47139 1.19755 7.89703 1.77191L6.80329 2.86566ZM2.69954 11.3007C2.53682 11.1381 2.40774 10.9452 2.31968 10.7327C2.23161 10.5203 2.18628 10.2925 2.18628 10.0625C2.18628 9.83259 2.23161 9.60483 2.31968 9.39238C2.40774 9.17993 2.53682 8.9869 2.69954 8.82441L4.88704 6.63691C5.04956 6.4742 5.24257 6.34512 5.45501 6.25706C5.66746 6.16899 5.89518 6.12366 6.12516 6.12366C6.35514 6.12366 6.58286 6.16899 6.79531 6.25706C7.00775 6.34512 7.20075 6.4742 7.36329 6.63691C7.48768 6.75283 7.65223 6.81594 7.82224 6.81294C7.99225 6.80994 8.15446 6.74106 8.2747 6.62083C8.39494 6.50059 8.46381 6.33838 8.46681 6.16837C8.46981 5.99836 8.40671 5.83381 8.29079 5.70941C8.0064 5.42499 7.66877 5.19938 7.2972 5.04546C6.92562 4.89154 6.52735 4.81231 6.12516 4.81231C5.72296 4.81231 5.32469 4.89154 4.95312 5.04546C4.58154 5.19938 4.24392 5.42499 3.95954 5.70941L1.77204 7.8969C1.19767 8.47127 0.875 9.25028 0.875 10.0625C0.875 10.8748 1.19767 11.6538 1.77204 12.2282C2.34639 12.8025 3.12539 13.1252 3.93766 13.1252C4.74992 13.1252 5.52892 12.8025 6.10329 12.2282L7.19704 11.1344C7.31296 11.01 7.37606 10.8455 7.37306 10.6755C7.37006 10.5055 7.30119 10.3432 7.18095 10.223C7.06071 10.1028 6.8985 10.0338 6.72849 10.0309C6.55848 10.0279 6.39393 10.091 6.26954 10.2069L5.17579 11.3007C5.01325 11.4633 4.82025 11.5925 4.60781 11.6805C4.39536 11.7686 4.16764 11.8139 3.93766 11.8139C3.70768 11.8139 3.47996 11.7686 3.26751 11.6805C3.05507 11.5925 2.86206 11.4633 2.69954 11.3007Z" />
</svg>
