<svg width="24" height="24" viewBox="0 0 24 24" xmlns="http://www.w3.org/2000/svg">
<path fill-rule="evenodd" clip-rule="evenodd" d="M17 17V21H21V17H17ZM15 17C15 15.8954 15.8954 15 17 15H21C22.1046 15 23 15.8954 23 17V21C23 22.1046 22.1046 23 21 23H17C15.8954 23 15 22.1046 15 21V17Z"/>
<path fill-rule="evenodd" clip-rule="evenodd" d="M3 17V21H7V17H3ZM1 17C1 15.8954 1.89543 15 3 15H7C8.10457 15 9 15.8954 9 17V21C9 22.1046 8.10457 23 7 23H3C1.89543 23 1 22.1046 1 21V17Z"/>
<path fill-rule="evenodd" clip-rule="evenodd" d="M10 3V7H14V3H10ZM8 3C8 1.89543 8.89543 1 10 1H14C15.1046 1 16 1.89543 16 3V7C16 8.10457 15.1046 9 14 9H10C8.89543 9 8 8.10457 8 7V3Z"/>
<path fill-rule="evenodd" clip-rule="evenodd" d="M4.58579 11.5858C4.96086 11.2107 5.46957 11 6 11H18C18.5304 11 19.0391 11.2107 19.4142 11.5858C19.7893 11.9609 20 12.4696 20 13V16C20 16.5523 19.5523 17 19 17C18.4477 17 18 16.5523 18 16L18 13H6L6 16C6 16.5523 5.55228 17 5 17C4.44772 17 4 16.5523 4 16V13C4 12.4696 4.21071 11.9609 4.58579 11.5858Z"/>
<path fill-rule="evenodd" clip-rule="evenodd" d="M12 7C12.5523 7 13 7.44772 13 8V12C13 12.5523 12.5523 13 12 13C11.4477 13 11 12.5523 11 12V8C11 7.44772 11.4477 7 12 7Z"/>
</svg>
