<svg xmlns="http://www.w3.org/2000/svg" width="14" height="14" viewBox="0 0 14 14">
  <path fill-rule="evenodd" clip-rule="evenodd" d="M4.81244 3.06251C4.34831 3.06251 3.90319 3.24688 3.575 3.57507C3.24682 3.90326 3.06244 4.34838 3.06244 4.81251C3.06244 5.27664 3.24682 5.72176 3.575 6.04994C3.90319 6.37813 4.34831 6.56251 4.81244 6.56251C5.27656 6.56251 5.72169 6.37813 6.04988 6.04994C6.37807 5.72176 6.56244 5.27664 6.56244 4.81251C6.56244 4.34838 6.37807 3.90326 6.04988 3.57507C5.72169 3.24688 5.27656 3.06251 4.81244 3.06251ZM1.74994 4.81251C1.74988 4.3049 1.87599 3.80523 2.11694 3.35844C2.35789 2.91167 2.70611 2.53179 3.13029 2.25297C3.55448 1.97415 4.04132 1.80514 4.54702 1.76116C5.05272 1.71716 5.56143 1.79956 6.02738 2.00093C6.49334 2.20232 6.90194 2.51635 7.21641 2.91482C7.5309 3.31328 7.7414 3.78366 7.829 4.28365C7.9166 4.78365 7.87853 5.29759 7.71823 5.77922C7.55794 6.26085 7.28044 6.6951 6.91069 7.04289C7.60794 7.38114 8.21332 7.8826 8.67547 8.50469C9.13766 9.12679 9.44295 9.8512 9.56545 10.6164C9.59275 10.7883 9.55057 10.9641 9.4482 11.105C9.34591 11.2459 9.19182 11.3403 9.01988 11.3676C8.84795 11.3949 8.67217 11.3527 8.53129 11.2503C8.39042 11.148 8.29595 10.9939 8.26869 10.822C8.13628 10.0007 7.71573 9.2534 7.08241 8.71398C6.44907 8.17457 5.64434 7.87833 4.81244 7.87833C3.98053 7.87833 3.17581 8.17457 2.54248 8.71398C1.90914 9.2534 1.48859 10.0007 1.35619 10.822C1.34263 10.9071 1.31243 10.9888 1.26732 11.0623C1.22221 11.1358 1.16307 11.1997 1.09328 11.2502C1.02348 11.3009 0.944395 11.3372 0.860546 11.3572C0.776693 11.3774 0.68971 11.3807 0.604564 11.3671C0.519418 11.3536 0.437776 11.3234 0.364301 11.2782C0.290825 11.2332 0.226955 11.174 0.176335 11.1042C0.125716 11.0345 0.0893383 10.9554 0.0692816 10.8714C0.0492246 10.7876 0.0458801 10.7006 0.0594391 10.6155C0.182232 9.85059 0.487642 9.12661 0.949777 8.5048C1.41192 7.88303 2.01715 7.38186 2.71419 7.04376C2.40928 6.75767 2.16636 6.41201 2.0005 6.02821C1.83464 5.6444 1.74935 5.23062 1.74994 4.81251ZM9.62495 3.50001C9.45091 3.50001 9.28396 3.56914 9.16093 3.69222C9.03782 3.81529 8.9687 3.98221 8.9687 4.15626C8.9687 4.33031 9.03782 4.49722 9.16093 4.6203C9.28396 4.74337 9.45091 4.81251 9.62495 4.81251C9.92096 4.81253 10.2083 4.91264 10.4404 5.09658C10.6723 5.28052 10.8353 5.53748 10.9028 5.82574C10.9703 6.114 10.9383 6.41662 10.8121 6.68443C10.686 6.95225 10.473 7.16954 10.2077 7.30101C10.0983 7.35542 10.0063 7.43929 9.94196 7.54317C9.87765 7.64706 9.84361 7.76683 9.8437 7.88901V8.19701C9.84352 8.34441 9.89296 8.48759 9.98405 8.60347C10.0751 8.71934 10.2026 8.8012 10.3459 8.83576C11.3959 9.08864 12.2377 9.88576 12.5527 10.9113C12.5776 10.9939 12.6188 11.0709 12.6735 11.1378C12.7284 11.2046 12.7959 11.2599 12.8722 11.3006C12.9484 11.3412 13.0319 11.3664 13.1179 11.3747C13.204 11.3831 13.2908 11.3742 13.3734 11.3489C13.456 11.3236 13.5329 11.2822 13.5994 11.227C13.666 11.1719 13.721 11.1042 13.7613 11.0277C13.8017 10.9513 13.8265 10.8677 13.8344 10.7816C13.8424 10.6956 13.8332 10.6088 13.8074 10.5263C13.6323 9.95804 13.3433 9.43137 12.9583 8.97839C12.5732 8.52528 12.1 8.15526 11.5674 7.89076C11.9095 7.51446 12.135 7.04688 12.2163 6.54488C12.2976 6.04287 12.2314 5.52805 12.0257 5.06298C11.8199 4.59791 11.4834 4.20262 11.0573 3.92515C10.6311 3.64768 10.1335 3.49998 9.62495 3.50001Z" />
</svg>