<svg xmlns="http://www.w3.org/2000/svg" width="15" height="14" viewBox="0 0 15 14">
  <path fill-rule="evenodd" clip-rule="evenodd" d="M1.89246 2.37346L2.58297 6.34385H6.8435C7.20593 6.34385 7.49975 6.63765 7.49975 7.0001C7.49975 7.36253 7.20593 7.65635 6.8435 7.65635H2.58297L1.89246 11.6267L12.688 7.0001L1.89246 2.37346ZM1.36489 7.0001L0.555456 2.34582C0.49002 1.96956 0.611769 1.58499 0.881819 1.31494C1.22113 0.975635 1.73284 0.877084 2.1739 1.06611L13.901 6.09199C14.2642 6.24768 14.4997 6.60487 14.4997 7.0001C14.4997 7.39532 14.2642 7.75252 13.901 7.90821L2.1739 12.934C1.73284 13.1231 1.22113 13.0245 0.881819 12.6853C0.611769 12.4152 0.490019 12.0306 0.555456 11.6544L1.36489 7.0001Z" />
</svg>