<svg xmlns="http://www.w3.org/2000/svg" width="48" height="49" viewBox="0 0 48 49" fill="none">
    <path fill-rule="evenodd" clip-rule="evenodd"
        d="M7.00024 16.5C7.00024 10.4249 11.925 5.5 18.0001 5.5C24.0752 5.5 28.9999 10.4249 28.9999 16.5C28.9999 20.279 27.0944 23.6129 24.1917 25.5932C30.9207 28.0583 35.7677 34.426 35.9918 41.9554C36.0165 42.7834 35.3652 43.4747 34.5371 43.4993C33.709 43.524 33.0178 42.8727 32.9931 42.0446C32.7529 33.9715 26.1319 27.5 17.9999 27.5C9.86795 27.5 3.24695 33.9715 3.00667 42.0446C2.98203 42.8727 2.29077 43.524 1.46271 43.4993C0.634653 43.4747 -0.0166439 42.7834 0.0080012 41.9554C0.232097 34.4259 5.07926 28.0581 11.8084 25.5931C8.90577 23.6128 7.00024 20.2789 7.00024 16.5ZM18.0001 8.5C13.5819 8.5 10.0002 12.0817 10.0002 16.5C10.0002 20.9183 13.5819 24.5 18.0001 24.5C22.4183 24.5 25.9999 20.9183 25.9999 16.5C25.9999 12.0817 22.4183 8.5 18.0001 8.5Z"
        fill="#4294F0" />
    <path
        d="M34.5801 16.5C34.2847 16.5 33.9951 16.521 33.7126 16.5614C32.8925 16.6787 32.1326 16.109 32.0153 15.2889C31.898 14.4688 32.4677 13.7089 33.2878 13.5917C33.7106 13.5312 34.1421 13.5 34.5801 13.5C39.5837 13.5 43.6399 17.5563 43.6399 22.56C43.6399 25.5117 42.2283 28.1318 40.0472 29.7848C44.7102 31.875 47.9599 36.5564 47.9599 42C47.9599 42.8284 47.2884 43.5 46.4599 43.5C45.6315 43.5 44.9599 42.8284 44.9599 42C44.9599 37.3082 41.846 33.3399 37.5688 32.0563L36.4999 31.7356V28.3837L37.3205 27.9668C39.2934 26.9643 40.6399 24.9181 40.6399 22.56C40.6399 19.2131 37.9268 16.5 34.5801 16.5Z"
        fill="#4294F0" />
</svg>