<svg xmlns="http://www.w3.org/2000/svg" width="16" height="16" viewBox="0 0 48 48" fill="none">
  <path fill-rule="evenodd" clip-rule="evenodd" d="M20.9944 0.000221636C20.9944 9.91255 12.946 17.9535 3 18C12.946 18.0465 20.9944 26.0875 20.9944 35.9998C20.9944 35.9999 20.9944 35.9999 20.9944 36C20.9944 36 20.9944 36 20.9944 36C20.9944 35.9999 20.9944 35.9999 20.9944 35.9998C20.9944 26.0875 29.0428 18.0465 38.9888 18C29.0428 17.9535 20.9944 9.91255 20.9944 0.000221636C20.9944 0.000147757 20.9944 7.38785e-05 20.9944 0C20.9944 0 20.9944 2.25485e-08 20.9944 2.25485e-08C20.9944 7.38935e-05 20.9944 0.000147765 20.9944 0.000221636Z" fill="#27C6A2"/>
  <path fill-rule="evenodd" clip-rule="evenodd" d="M24 37.4999C29.799 37.4999 34.4999 32.799 34.5 27ZM24 37.4999C29.799 37.5 34.5 42.201 34.5 48C34.5 42.201 39.201 37.5 45 37.5C39.201 37.5 34.5 32.799 34.5 27" fill="#27C6A2"/>
</svg>