<svg width="14" height="14" viewBox="0 0 14 14" xmlns="http://www.w3.org/2000/svg">
  <path fill-rule="evenodd" clip-rule="evenodd" d="M10.0625 6.12498C10.0625 6.64205 9.96063 7.15407 9.76271 7.63179C9.56487 8.10951 9.27481 8.54357 8.90923 8.90923C8.54357 9.2748 8.10951 9.56486 7.63179 9.76279C7.15407 9.96063 6.64206 10.0625 6.12498 10.0625C5.60789 10.0625 5.09588 9.96063 4.61816 9.76279C4.14044 9.56486 3.70637 9.2748 3.34074 8.90923C2.97511 8.54357 2.68508 8.10951 2.4872 7.63179C2.28932 7.15407 2.18748 6.64205 2.18748 6.12498C2.18748 5.08068 2.60231 4.07916 3.34074 3.34074C4.07916 2.60231 5.08068 2.18748 6.12498 2.18748C7.16926 2.18748 8.17078 2.60231 8.90923 3.34074C9.64765 4.07916 10.0625 5.08068 10.0625 6.12498ZM9.34498 10.2725C8.29006 11.0915 6.96267 11.4776 5.63305 11.3523C4.30343 11.2271 3.07152 10.5998 2.18813 9.5982C1.30473 8.5966 0.836256 7.29598 0.878064 5.96113C0.91988 4.62628 1.46884 3.35753 2.41318 2.41318C3.35753 1.46884 4.62627 0.91988 5.96113 0.878064C7.29599 0.836254 8.5966 1.30473 9.59821 2.18813C10.5998 3.07152 11.2271 4.30343 11.3523 5.63305C11.4776 6.96267 11.0915 8.29005 10.2725 9.34498L12.9325 12.005C12.997 12.0651 13.0487 12.1375 13.0846 12.218C13.1204 12.2985 13.1397 12.3854 13.1413 12.4735C13.1428 12.5616 13.1266 12.6491 13.0936 12.7309C13.0606 12.8126 13.0114 12.8868 12.9491 12.9491C12.8868 13.0115 12.8126 13.0606 12.7309 13.0936C12.6492 13.1265 12.5617 13.1428 12.4735 13.1413C12.3854 13.1397 12.2985 13.1204 12.218 13.0846C12.1375 13.0487 12.0651 12.997 12.005 12.9325L9.34498 10.2725Z" />
</svg>
