<svg xmlns="http://www.w3.org/2000/svg" width="48" height="48" viewBox="0 0 48 48" fill="none">
  <path d="M26 23.4623C27.1956 22.7707 28 21.478 28 19.9975C28 17.7883 26.2091 15.9975 24 15.9975C21.7909 15.9975 20 17.7883 20 19.9975C20 21.478 20.8044 22.7707 22 23.4623V28.9975C22 30.102 22.8954 30.9975 24 30.9975C25.1046 30.9975 26 30.102 26 28.9975L26 23.4623Z" fill="#4294F0"/>
  <path fill-rule="evenodd" clip-rule="evenodd" d="M22.9202 1.27073C23.6221 1.0431 24.3779 1.0431 25.0798 1.27073L41.5798 6.62208C43.0215 7.08968 44 8.43162 44 9.94989V19.9974C44 32.3761 36.4584 41.4072 25.198 45.6561C24.4267 45.9471 23.5733 45.9471 22.802 45.6561C11.5416 41.4072 4.00001 32.3761 4 19.9975V9.94933C4 8.43055 4.97894 7.08952 6.42023 6.62208L22.9202 1.27073ZM24.1543 4.12439C24.054 4.09188 23.946 4.09188 23.8457 4.12439L7.34575 9.47575C7.13791 9.54315 7 9.7344 7 9.94933L7 19.9974C7.00001 30.9202 13.5615 38.9629 23.8611 42.8493C23.9498 42.8827 24.0502 42.8827 24.1389 42.8493C34.4385 38.9629 41 30.9202 41 19.9974V9.94989C41 9.73447 40.8616 9.543 40.6543 9.47575L24.1543 4.12439Z" fill="#4294F0"/>
</svg>