<svg xmlns="http://www.w3.org/2000/svg" width="17" height="16" viewBox="0 0 17 16">
  <path fill-rule="evenodd" clip-rule="evenodd" d="M2 8C2 6.27609 2.68482 4.62279 3.90381 3.40381C5.12279 2.18482 6.77609 1.5 8.5 1.5C10.2239 1.5 11.8772 2.18482 13.0962 3.40381C14.3152 4.62279 15 6.27609 15 8C15 9.72391 14.3152 11.3772 13.0962 12.5962C11.8772 13.8152 10.2239 14.5 8.5 14.5C6.77609 14.5 5.12279 13.8152 3.90381 12.5962C2.68482 11.3772 2 9.72391 2 8ZM8.5 0C6.37827 0 4.34344 0.842855 2.84315 2.34315C1.34285 3.84344 0.5 5.87827 0.5 8C0.5 10.1217 1.34285 12.1566 2.84315 13.6569C4.34344 15.1571 6.37827 16 8.5 16C10.6217 16 12.6566 15.1571 14.1569 13.6569C15.6571 12.1566 16.5 10.1217 16.5 8C16.5 5.87827 15.6571 3.84344 14.1569 2.34315C12.6566 0.842855 10.6217 0 8.5 0ZM5.5 8C5.76522 8 6.01957 7.89464 6.20711 7.70711C6.39464 7.51957 6.5 7.26522 6.5 7C6.5 6.73478 6.39464 6.48043 6.20711 6.29289C6.01957 6.10536 5.76522 6 5.5 6C5.23478 6 4.98043 6.10536 4.79289 6.29289C4.60536 6.48043 4.5 6.73478 4.5 7C4.5 7.26522 4.60536 7.51957 4.79289 7.70711C4.98043 7.89464 5.23478 8 5.5 8ZM12.5 7C12.5 7.26522 12.3946 7.51957 12.2071 7.70711C12.0196 7.89464 11.7652 8 11.5 8C11.2348 8 10.9804 7.89464 10.7929 7.70711C10.6054 7.51957 10.5 7.26522 10.5 7C10.5 6.73478 10.6054 6.48043 10.7929 6.29289C10.9804 6.10536 11.2348 6 11.5 6C11.7652 6 12.0196 6.10536 12.2071 6.29289C12.3946 6.48043 12.5 6.73478 12.5 7ZM5.82 9.636C5.98134 9.52303 6.18064 9.47806 6.37486 9.51081C6.56908 9.54355 6.74262 9.65138 6.858 9.811L6.865 9.82C6.96785 9.93795 7.08549 10.0421 7.215 10.13C7.479 10.308 7.898 10.5 8.5 10.5C9.102 10.5 9.52 10.308 9.785 10.129C9.91451 10.0411 10.0322 9.93695 10.135 9.819L10.142 9.811C10.2574 9.64895 10.4324 9.53937 10.6285 9.50637C10.8247 9.47336 11.026 9.51963 11.188 9.635C11.35 9.75037 11.4596 9.92539 11.4926 10.1215C11.5256 10.3177 11.4794 10.519 11.364 10.681L10.75 10.25C11.364 10.68 11.364 10.681 11.363 10.681V10.682L11.362 10.684L11.36 10.687L11.355 10.694L11.341 10.713C11.2848 10.7883 11.2233 10.8594 11.157 10.926C10.9963 11.0924 10.8187 11.2415 10.627 11.371C9.99722 11.7894 9.25607 12.0086 8.5 12C7.554 12 6.848 11.692 6.374 11.37C6.12319 11.2003 5.89676 10.9971 5.701 10.766C5.6867 10.7486 5.6727 10.7309 5.659 10.713L5.645 10.693L5.64 10.687L5.638 10.684V10.682H5.637L6.25 10.25L5.636 10.68C5.52196 10.5172 5.47718 10.3159 5.51149 10.1201C5.54581 9.92439 5.6564 9.75027 5.819 9.636H5.82Z" />
</svg>