<svg xmlns="http://www.w3.org/2000/svg" width="16" height="17" viewBox="0 0 16 17">
  <path fill-rule="evenodd" clip-rule="evenodd" d="M2.75 14.5C1.7835 14.5 1 13.7165 1 12.75L1 10.25C1 9.83577 1.33579 9.49998 1.75 9.49998C2.16421 9.49998 2.5 9.83577 2.5 10.25L2.5 12.75C2.5 12.8881 2.61193 13 2.75 13L13.25 13C13.3881 13 13.5 12.8881 13.5 12.75V10.25C13.5 9.83577 13.8358 9.49998 14.25 9.49998C14.6642 9.49998 15 9.83577 15 10.25V12.75C15 13.7165 14.2165 14.5 13.25 14.5L2.75 14.5Z" />
  <path d="M11.7803 5.21967C12.0732 5.51256 12.0732 5.98744 11.7803 6.28033C11.4874 6.57322 11.0126 6.57322 10.7197 6.28033L8.75 4.31066L8.75 9.99998C8.75 10.4142 8.41421 10.75 8 10.75C7.58578 10.75 7.25 10.4142 7.25 9.99998L7.25 4.31066L5.28033 6.28033C4.98744 6.57322 4.51256 6.57322 4.21967 6.28033C3.92678 5.98744 3.92678 5.51256 4.21967 5.21967L7.46967 1.96967C7.76256 1.67678 8.23744 1.67678 8.53033 1.96967L11.7803 5.21967Z" />
</svg>