<?xml version="1.0" standalone="no"?>
<!DOCTYPE svg PUBLIC "-//W3C//DTD SVG 20010904//EN"
 "http://www.w3.org/TR/2001/REC-SVG-20010904/DTD/svg10.dtd">
<svg version="1.0" xmlns="http://www.w3.org/2000/svg"
 width="700.000000pt" height="700.000000pt" viewBox="0 0 700.000000 700.000000"
 preserveAspectRatio="xMidYMid meet">
<metadata>
Created by potrace 1.11, written by Peter Selinger 2001-2013
</metadata>
<g transform="translate(0.000000,700.000000) scale(0.100000,-0.100000)"
fill="#000000" stroke="none">
<path d="M3860 6669 c-1015 -165 -1851 -301 -1857 -304 -10 -3 -13 -135 -13
-614 l0 -610 -34 -6 c-19 -4 -260 -44 -537 -89 l-504 -82 -3 -2162 c-1 -1189
0 -2162 2 -2162 5 0 1510 -246 2747 -450 537 -88 979 -160 983 -160 3 0 6
1247 6 2771 l0 2771 -27 -6 c-55 -11 -2134 -346 -2148 -346 -13 0 -15 49 -15
339 l0 339 28 6 c52 11 2747 396 2770 396 l22 0 0 -1524 0 -1524 -74 -46
c-318 -198 -367 -629 -102 -891 117 -116 249 -168 417 -167 311 3 561 255 560
567 0 50 -7 116 -16 149 -37 141 -139 277 -260 347 l-60 35 -3 1862 c-2 1765
-3 1862 -20 1861 -9 0 -847 -135 -1862 -300z m310 -3900 l0 -2071 -37 6 c-21
3 -468 60 -993 127 -525 66 -1139 143 -1365 172 l-410 52 0 1720 0 1720 1370
171 c754 95 1385 172 1403 173 l32 1 0 -2071z"/>
<path d="M2780 3890 c-498 -33 -920 -59 -937 -59 l-33 -1 0 -167 0 -166 98 6
c53 3 483 21 955 39 l857 32 0 188 c0 173 -1 188 -17 187 -10 -1 -425 -27
-923 -59z"/>
<path d="M2590 2928 c-415 -5 -761 -11 -767 -13 -10 -3 -13 -52 -13 -200 l0
-195 88 0 c126 0 1272 -18 1570 -25 l252 -6 0 226 0 225 -187 -2 c-104 -1
-528 -5 -943 -10z"/>
<path d="M1814 2151 c-8 -8 -4 -321 4 -321 5 0 428 -27 941 -60 513 -33 939
-60 947 -60 12 0 14 32 14 185 l0 185 -29 0 c-22 0 -1433 56 -1809 72 -35 2
-66 1 -68 -1z"/>
</g>
</svg>
