<svg xmlns="http://www.w3.org/2000/svg" width="14" height="14" viewBox="0 0 14 14">
  <path fill-rule="evenodd" clip-rule="evenodd" d="M0 1.53125C0 1.16882 0.293813 0.875 0.65625 0.875H4.3775C5.45135 0.875 6.40482 1.39088 7.00344 2.18843C7.60203 1.39092 8.55545 0.875 9.62938 0.875H13.3438C13.7062 0.875 14 1.16882 14 1.53125V10.7188C14 11.0812 13.7062 11.375 13.3438 11.375H9.39978C8.87766 11.375 8.37691 11.5825 8.00769 11.9516L7.46404 12.4953C7.20776 12.7515 6.79224 12.7515 6.53596 12.4953L5.99231 11.9516C5.62309 11.5825 5.12234 11.375 4.60019 11.375H0.65625C0.293813 11.375 0 11.0812 0 10.7188V1.53125ZM7.66062 4.15625C7.66062 3.06894 8.54206 2.1875 9.62938 2.1875H12.6875V10.0625H9.39978C8.77853 10.0625 8.17547 10.2387 7.65733 10.5633L7.66062 4.15625ZM6.34483 10.5648L6.34812 6.12562L6.34624 4.15438C6.34521 3.06779 5.46408 2.1875 4.3775 2.1875H1.3125V10.0625H4.60019C5.22231 10.0625 5.82622 10.2392 6.34483 10.5648Z" />
</svg>