<svg xmlns="http://www.w3.org/2000/svg" width="15" height="14" viewBox="0 0 15 14">
  <path fill-rule="evenodd" clip-rule="evenodd" d="M12.5577 3.69241C12.6806 3.81545 12.7496 3.98225 12.7496 4.15616C12.7496 4.33007 12.6806 4.49686 12.5577 4.61991L6.21399 10.9637C6.09093 11.0865 5.92414 11.1555 5.75024 11.1555C5.57633 11.1555 5.40953 11.0865 5.28649 10.9637L2.44274 8.11991C2.32682 7.9955 2.26371 7.83097 2.2667 7.66095C2.2697 7.49093 2.33858 7.32873 2.45882 7.20848C2.57905 7.08825 2.74127 7.01938 2.91128 7.01638C3.08129 7.01338 3.24583 7.07649 3.37024 7.19241L5.75024 9.57241L11.6302 3.69241C11.7533 3.56952 11.92 3.50049 12.094 3.50049C12.2678 3.50049 12.4347 3.56952 12.5577 3.69241Z" />
</svg>