<svg xmlns="http://www.w3.org/2000/svg" width="14" height="15" viewBox="0 0 14 15">
  <path fill-rule="evenodd" clip-rule="evenodd"
    d="M7 14.5C10.866 14.5 14 11.366 14 7.5C14 3.634 10.866 0.5 7 0.5C3.134 0.5 0 3.634 0 7.5C0 11.366 3.134 14.5 7 14.5ZM10.3078 5.99529C10.5641 5.73901 10.5641 5.32349 10.3078 5.06721C10.0515 4.81093 9.63602 4.81093 9.37974 5.06721L5.90625 8.54067L4.62029 7.25471C4.36401 6.99843 3.94849 6.99843 3.69221 7.25471C3.43593 7.51099 3.43593 7.92651 3.69221 8.18279L5.44221 9.93276C5.69849 10.1891 6.11401 10.1891 6.37029 9.93276L10.3078 5.99529Z" />
</svg>