<svg width="16" height="16" viewBox="0 0 16 16" xmlns="http://www.w3.org/2000/svg">
  <path d="M10 9.75C10 9.33579 10.3358 9 10.75 9H12.25C12.6642 9 13 9.33579 13 9.75C13 10.1642 12.6642 10.5 12.25 10.5H10.75C10.3358 10.5 10 10.1642 10 9.75Z" />
  <path fill-rule="evenodd" clip-rule="evenodd" d="M1.75 2C0.783502 2 0 2.7835 0 3.75V12.25C0 13.2165 0.783501 14 1.75 14H14.25C15.2165 14 16 13.2165 16 12.25V3.75C16 2.7835 15.2165 2 14.25 2H1.75ZM14.5 5V3.75C14.5 3.61193 14.3881 3.5 14.25 3.5H1.75C1.61193 3.5 1.5 3.61193 1.5 3.75V5H14.5ZM1.5 6.5H14.5V12.25C14.5 12.3881 14.3881 12.5 14.25 12.5H1.75C1.61193 12.5 1.5 12.3881 1.5 12.25V6.5Z" />
</svg>
