<svg xmlns="http://www.w3.org/2000/svg" width="14" height="15" viewBox="0 0 14 15">
    <path fill-rule="evenodd" clip-rule="evenodd" d="M2.40625 12.75C1.56056 12.75 0.875 12.0644 0.875 11.2187L0.875 9.03123C0.875 8.66879 1.16881 8.37498 1.53125 8.37498C1.89369 8.37498 2.1875 8.66879 2.1875 9.03123L2.1875 11.2187C2.1875 11.3395 2.28544 11.4375 2.40625 11.4375H11.5938C11.7146 11.4375 11.8125 11.3395 11.8125 11.2187V9.03123C11.8125 8.66879 12.1063 8.37498 12.4688 8.37498C12.8312 8.37498 13.125 8.66879 13.125 9.03123V11.2187C13.125 12.0644 12.4394 12.75 11.5938 12.75H2.40625Z" fill="#4294F0" />
    <path d="M6.34375 7.22815L6.34375 2.25C6.34375 1.88756 6.63756 1.59375 7 1.59375C7.36244 1.59375 7.65625 1.88756 7.65625 2.25L7.65625 7.22815L9.37971 5.50469C9.63599 5.24841 10.0515 5.24841 10.3078 5.50469C10.5641 5.76097 10.5641 6.17649 10.3078 6.43277L7.46404 9.27652C7.20776 9.5328 6.79224 9.5328 6.53596 9.27652L3.69221 6.43277C3.43593 6.17649 3.43593 5.76097 3.69221 5.50469C3.94849 5.24841 4.36401 5.24841 4.62029 5.50469L6.34375 7.22815Z" />
</svg>