<svg xmlns="http://www.w3.org/2000/svg" width="14" height="14" viewBox="0 0 14 14" fill="none">
    <path fill-rule="evenodd" clip-rule="evenodd"
        d="M1.46911 6.94019C1.83012 6.39707 2.55565 5.40883 3.53923 4.56292C4.52883 3.71184 5.71158 3.0625 7.00013 3.0625C8.28868 3.0625 9.47147 3.71184 10.461 4.56292C11.4446 5.40883 12.1701 6.39707 12.5312 6.94019C12.5564 6.97813 12.5564 7.02187 12.5312 7.05981C12.1701 7.60293 11.4446 8.59117 10.461 9.43705C9.47147 10.2882 8.28868 10.9375 7.00013 10.9375C5.71158 10.9375 4.52883 10.2882 3.53923 9.43705C2.55565 8.59117 1.83012 7.60293 1.46911 7.05981C1.44389 7.02187 1.44389 6.97813 1.46911 6.94019ZM7.00013 1.75C5.26644 1.75 3.78816 2.61771 2.68341 3.56782C1.57265 4.5231 0.770519 5.62019 0.376053 6.21363C0.0582422 6.69175 0.0582435 7.30825 0.376053 7.78637C0.77052 8.37981 1.57265 9.47686 2.68341 10.4322C3.78816 11.3823 5.26644 12.25 7.00013 12.25C8.73382 12.25 10.2121 11.3823 11.3168 10.4322C12.4276 9.47686 13.2298 8.37981 13.6242 7.78637C13.942 7.30825 13.942 6.69175 13.6242 6.21363C13.2298 5.62019 12.4276 4.5231 11.3168 3.56782C10.2121 2.61771 8.73382 1.75 7.00013 1.75ZM7.00012 8.75C7.96662 8.75 8.75012 7.9665 8.75012 7C8.75012 6.0335 7.96662 5.25 7.00012 5.25C6.03362 5.25 5.25012 6.0335 5.25012 7C5.25012 7.9665 6.03362 8.75 7.00012 8.75Z"
        fill="#4294F0" />
</svg>