<svg xmlns="http://www.w3.org/2000/svg" width="25" height="24" viewBox="0 0 25 24">
  <path d="M15.2804 3.65291C16.8176 2.1157 19.3099 2.1157 20.8471 3.65291C22.3843 5.19013 22.3843 7.68245 20.8471 9.21967L17.2197 12.8471C15.6825 14.3843 13.1902 14.3843 11.6529 12.8471C11.5399 12.7341 11.4354 12.6162 11.3394 12.4941C11.0831 12.1686 10.6116 12.1125 10.2861 12.3687C9.96066 12.6249 9.90451 13.0964 10.1607 13.4219C10.2934 13.5904 10.4373 13.7527 10.5923 13.9077C12.7153 16.0308 16.1574 16.0308 18.2804 13.9077L21.9078 10.2803C24.0308 8.15733 24.0308 4.71526 21.9078 2.59225C19.7848 0.469249 16.3427 0.469249 14.2197 2.59225L11.2197 5.59229C10.9268 5.88518 10.9268 6.36006 11.2197 6.65295C11.5126 6.94584 11.9874 6.94584 12.2803 6.65295L15.2804 3.65291Z" />
  <path d="M7.78033 11.1529C9.31755 9.6157 11.8099 9.6157 13.3471 11.1529C13.4601 11.266 13.5647 11.3839 13.6607 11.5059C13.9169 11.8313 14.3884 11.8875 14.7139 11.6313C15.0394 11.3751 15.0955 10.9035 14.8393 10.578C14.7066 10.4095 14.5627 10.2472 14.4077 10.0923C12.2847 7.96925 8.84267 7.96925 6.71967 10.0923L3.09225 13.7197C0.969249 15.8427 0.969249 19.2847 3.09225 21.4077C5.21526 23.5308 8.65733 23.5308 10.7803 21.4077L13.7803 18.4077C14.0732 18.1149 14.0732 17.64 13.7803 17.3471C13.4874 17.0542 13.0126 17.0542 12.7197 17.3471L9.71967 20.3471C8.18245 21.8843 5.69013 21.8843 4.15291 20.3471C2.6157 18.8099 2.6157 16.3175 4.15291 14.7803L7.78033 11.1529Z" />
</svg>