<svg width="14" height="15" viewBox="0 0 14 15" fill="none" xmlns="http://www.w3.org/2000/svg">
    <g clip-path="url(#clip0_2046_3356)">
        <path fill-rule="evenodd" clip-rule="evenodd"
            d="M3.5 4V5.75H3.28125C2.87514 5.75 2.48566 5.91132 2.19849 6.19849C1.91132 6.48566 1.75 6.87514 1.75 7.28125L1.75 12.0938C1.75 12.939 2.436 13.625 3.28125 13.625H10.7188C11.1248 13.625 11.5143 13.4636 11.8015 13.1765C12.0886 12.8893 12.25 12.4998 12.25 12.0938V7.28125C12.25 6.87514 12.0886 6.48566 11.8015 6.19849C11.5143 5.91132 11.1248 5.75 10.7188 5.75H10.5V4C10.5 3.07174 10.1313 2.1815 9.47485 1.52512C8.81851 0.868749 7.92826 0.5 7 0.5C6.07174 0.5 5.1815 0.868749 4.52512 1.52512C3.86875 2.1815 3.5 3.07174 3.5 4ZM9.1875 5.75V4C9.1875 3.41984 8.95703 2.86344 8.5468 2.4532C8.13656 2.04297 7.58016 1.8125 7 1.8125C6.41984 1.8125 5.86344 2.04297 5.4532 2.4532C5.04297 2.86344 4.8125 3.41984 4.8125 4V5.75H9.1875ZM10.5 7.0625H10.7188C10.7768 7.0625 10.8324 7.08555 10.8734 7.12657C10.9145 7.1676 10.9375 7.22324 10.9375 7.28125V12.0938C10.9375 12.1518 10.9145 12.2074 10.8734 12.2484C10.8324 12.2895 10.7768 12.3125 10.7188 12.3125H3.28125C3.22324 12.3125 3.1676 12.2895 3.12657 12.2484C3.08555 12.2074 3.0625 12.1518 3.0625 12.0938L3.0625 7.28125C3.0625 7.22324 3.08555 7.1676 3.12657 7.12657C3.1676 7.08555 3.22324 7.0625 3.28125 7.0625L10.5 7.0625Z"
            fill="#5C717C" />
    </g>
    <defs>
        <clipPath id="clip0_2046_3356">
            <rect width="14" height="14" fill="white" transform="translate(0 0.5)" />
        </clipPath>
    </defs>
</svg>