<svg width="16" height="16" viewBox="0 0 16 16" xmlns="http://www.w3.org/2000/svg">
  <path fill-rule="evenodd" clip-rule="evenodd" d="M1.75012 2C0.783624 2 0.000122075 2.7835 0.000122075 3.75L0.000122075 4.48577C-4.08865e-05 4.49479 -4.04965e-05 4.50381 0.000122075 4.51282L0.000122075 12.25C0.000122075 13.2165 0.783623 14 1.75012 14H14.2501C15.2166 14 16.0001 13.2165 16.0001 12.25V4.51265C16.0003 4.50376 16.0003 4.49485 16.0001 4.48594V3.75C16.0001 2.7835 15.2166 2 14.2501 2L1.75012 2ZM14.5001 4.07029V3.75C14.5001 3.61193 14.3882 3.5 14.2501 3.5L1.75012 3.5C1.61205 3.5 1.50012 3.61193 1.50012 3.75L1.50012 4.07029L8.00012 7.88063L14.5001 4.07029ZM1.50012 5.80902L1.50012 12.25C1.50012 12.3881 1.61205 12.5 1.75012 12.5H14.2501C14.3882 12.5 14.5001 12.3881 14.5001 12.25V5.80902L8.37941 9.39702C8.14519 9.53432 7.85505 9.53432 7.62083 9.39702L1.50012 5.80902Z" />
</svg>
