<svg xmlns="http://www.w3.org/2000/svg" width="16" height="17" viewBox="0 0 16 17">
  <path fill-rule="evenodd" clip-rule="evenodd"
    d="M1.5 14.75C1.5 14.8881 1.61193 15 1.75 15H4V13.75C4 13.3358 4.33579 13 4.75 13H7.25C7.66421 13 8 13.3358 8 13.75V15H10.25C10.3881 15 10.5 14.8881 10.5 14.75V2.25C10.5 2.11193 10.3881 2 10.25 2L1.75 2C1.61193 2 1.5 2.11193 1.5 2.25L1.5 14.75ZM1.75 16.5C0.783502 16.5 0 15.7165 0 14.75L0 2.25C0 1.2835 0.783502 0.5 1.75 0.5L10.25 0.5C11.2165 0.5 12 1.2835 12 2.25V14.75C12 14.8349 11.994 14.9184 11.9823 15.0001H14.25C14.3881 15.0001 14.5 14.8882 14.5 14.7501V8.78526C14.5 8.70168 14.4582 8.62362 14.3887 8.57725L13.334 7.87412C12.9893 7.64435 12.8962 7.1787 13.126 6.83405C13.3557 6.48941 13.8214 6.39628 14.166 6.62604L15.2207 7.32918C15.7076 7.65374 16 8.20015 16 8.78526V14.7501C16 15.7166 15.2165 16.5001 14.25 16.5001H10.75C10.6818 16.5001 10.6157 16.491 10.5528 16.4739C10.4545 16.4911 10.3533 16.5 10.25 16.5H7.25C6.83579 16.5 6.5 16.1642 6.5 15.75V14.5H5.5V15.75C5.5 16.1642 5.16421 16.5 4.75 16.5H1.75ZM3 4.25C3 3.83579 3.33579 3.5 3.75 3.5L4.25 3.5C4.66421 3.5 5 3.83579 5 4.25C5 4.66421 4.66421 5 4.25 5H3.75C3.33579 5 3 4.66421 3 4.25ZM3.75 6.5C3.33579 6.5 3 6.83579 3 7.25C3 7.66421 3.33579 8 3.75 8H4.25C4.66421 8 5 7.66421 5 7.25C5 6.83579 4.66421 6.5 4.25 6.5H3.75ZM3 10.25C3 9.83579 3.33579 9.5 3.75 9.5H4.25C4.66421 9.5 5 9.83579 5 10.25C5 10.6642 4.66421 11 4.25 11H3.75C3.33579 11 3 10.6642 3 10.25ZM7.75 9.5C7.33579 9.5 7 9.83579 7 10.25C7 10.6642 7.33579 11 7.75 11H8.25C8.66421 11 9 10.6642 9 10.25C9 9.83579 8.66421 9.5 8.25 9.5H7.75ZM7 7.25C7 6.83579 7.33579 6.5 7.75 6.5L8.25 6.5C8.66421 6.5 9 6.83579 9 7.25C9 7.66421 8.66421 8 8.25 8L7.75 8C7.33579 8 7 7.66421 7 7.25ZM7.75 3.5C7.33579 3.5 7 3.83579 7 4.25C7 4.66421 7.33579 5 7.75 5L8.25 5C8.66421 5 9 4.66421 9 4.25C9 3.83579 8.66421 3.5 8.25 3.5H7.75Z" />
</svg>