<svg xmlns="http://www.w3.org/2000/svg" width="14" height="14" viewBox="0 0 14 14">
  <path fill-rule="evenodd" clip-rule="evenodd" d="M9.63605 1.24842C10.234 0.650428 11.2035 0.65043 11.8015 1.24842L12.7516 2.19849C13.3496 2.79647 13.3496 3.76601 12.7516 4.364L5.21813 11.8975C5.03412 12.0815 4.80625 12.2155 4.55604 12.287L1.71155 13.0997C1.48239 13.1652 1.23576 13.1013 1.06723 12.9328C0.898706 12.7642 0.834793 12.5176 0.900263 12.2885L1.71298 9.44395C1.78447 9.19379 1.91854 8.96585 2.10256 8.78184L9.63605 1.24842ZM10.8735 2.1765C10.788 2.09107 10.6495 2.09107 10.5641 2.1765L9.4593 3.28124L10.7188 4.54066L11.8236 3.43592C11.909 3.35049 11.909 3.21199 11.8236 3.12656L10.8735 2.1765ZM9.79067 5.46874L8.53127 4.20932L3.03063 9.70995C3.00435 9.7362 2.9852 9.76875 2.97498 9.80454L2.48678 11.5132L4.19547 11.025C4.23121 11.0148 4.26376 10.9957 4.29006 10.9693L9.79067 5.46874Z" />
</svg>