<svg xmlns="http://www.w3.org/2000/svg" width="17" height="16" viewBox="0 0 17 16" fill="none">
    <g clip-path="url(#clip0_2986_9229)">
        <path fill-rule="evenodd" clip-rule="evenodd"
            d="M5.99993 3.49994C5.4695 3.49994 4.96079 3.71065 4.58572 4.08572C4.21065 4.4608 3.99993 4.9695 3.99993 5.49994C3.99993 6.03037 4.21065 6.53908 4.58572 6.91415C4.96079 7.28922 5.4695 7.49994 5.99993 7.49994C6.53036 7.49994 7.03907 7.28922 7.41415 6.91415C7.78922 6.53908 7.99993 6.03037 7.99993 5.49994C7.99993 4.9695 7.78922 4.4608 7.41415 4.08572C7.03907 3.71065 6.53036 3.49994 5.99993 3.49994ZM2.49993 5.49994C2.49986 4.91981 2.64399 4.34876 2.91936 3.83815C3.19473 3.32755 3.5927 2.8934 4.07748 2.57475C4.56226 2.2561 5.11865 2.06295 5.69659 2.01268C6.27454 1.9624 6.85592 2.05657 7.38844 2.28671C7.92096 2.51686 8.38793 2.87576 8.74733 3.33115C9.10674 3.78653 9.34732 4.32411 9.44743 4.89553C9.54754 5.46696 9.50404 6.05431 9.32084 6.60475C9.13765 7.15519 8.8205 7.65147 8.39793 8.04894C9.19479 8.43552 9.88665 9.00861 10.4148 9.71957C10.943 10.4305 11.2919 11.2584 11.4319 12.1329C11.4631 12.3294 11.4149 12.5303 11.2979 12.6913C11.181 12.8523 11.0049 12.9602 10.8084 12.9914C10.6119 13.0226 10.411 12.9744 10.25 12.8574C10.089 12.7405 9.98109 12.5644 9.94993 12.3679C9.79861 11.4293 9.31798 10.5752 8.59418 9.95876C7.87037 9.34229 6.95068 9.00373 5.99993 9.00373C5.04918 9.00373 4.1295 9.34229 3.40569 9.95876C2.68188 10.5752 2.20125 11.4293 2.04993 12.3679C2.03444 12.4652 1.99992 12.5585 1.94837 12.6425C1.89681 12.7265 1.82922 12.7995 1.74946 12.8573C1.66969 12.9152 1.57931 12.9567 1.48348 12.9796C1.38765 13.0026 1.28824 13.0064 1.19093 12.9909C1.09362 12.9754 1.00032 12.9409 0.916344 12.8893C0.832372 12.8378 0.759377 12.7702 0.701526 12.6904C0.643675 12.6107 0.602101 12.5203 0.579179 12.4244C0.556257 12.3286 0.552434 12.2292 0.56793 12.1319C0.708265 11.2577 1.0573 10.4303 1.58546 9.7197C2.11362 9.00911 2.80532 8.43634 3.60193 8.04994C3.25346 7.72298 2.97584 7.32794 2.78629 6.88931C2.59673 6.45067 2.49926 5.97778 2.49993 5.49994ZM11.4999 3.99994C11.301 3.99994 11.1102 4.07895 10.9696 4.21961C10.8289 4.36026 10.7499 4.55102 10.7499 4.74994C10.7499 4.94885 10.8289 5.13961 10.9696 5.28027C11.1102 5.42092 11.301 5.49994 11.4999 5.49994C11.8382 5.49996 12.1666 5.61437 12.4318 5.82459C12.6969 6.03481 12.8832 6.32848 12.9603 6.65792C13.0374 6.98736 13.0009 7.33321 12.8567 7.63928C12.7125 7.94536 12.4691 8.19369 12.1659 8.34394C12.0409 8.40612 11.9357 8.50197 11.8622 8.62069C11.7887 8.73942 11.7498 8.8763 11.7499 9.01594V9.36794C11.7497 9.5364 11.8062 9.70003 11.9103 9.83246C12.0144 9.96489 12.1601 10.0584 12.3239 10.0979C13.5239 10.3869 14.4859 11.2979 14.8459 12.4699C14.8744 12.5644 14.9214 12.6524 14.984 12.7288C15.0467 12.8051 15.1238 12.8684 15.211 12.9149C15.2981 12.9613 15.3936 12.9901 15.4919 12.9996C15.5902 13.0091 15.6894 12.999 15.7839 12.9701C15.8783 12.9411 15.9661 12.8938 16.0421 12.8308C16.1182 12.7678 16.1811 12.6904 16.2272 12.603C16.2733 12.5157 16.3017 12.4201 16.3107 12.3217C16.3198 12.2234 16.3093 12.1242 16.2799 12.0299C16.0797 11.3805 15.7495 10.7786 15.3094 10.2609C14.8693 9.74311 14.3285 9.32022 13.7199 9.01794C14.1108 8.58788 14.3685 8.05351 14.4614 7.47979C14.5544 6.90607 14.4787 6.3177 14.2436 5.78619C14.0084 5.25468 13.6239 4.80292 13.1369 4.48581C12.6498 4.1687 12.0811 3.9999 11.4999 3.99994Z"
            fill="#5C717C" />
    </g>
    <defs>
        <clipPath id="clip0_2986_9229">
            <rect width="16" height="16" fill="white" transform="translate(0.5)" />
        </clipPath>
    </defs>
</svg>