<svg width="64" height="64" viewBox="0 0 64 64" xmlns="http://www.w3.org/2000/svg">
  <path fill-rule="evenodd" clip-rule="evenodd" d="M32.0001 7.0625C24.0266 7.0625 17.5628 13.5264 17.5628 21.5C17.5628 26.4598 20.0638 30.8356 23.8735 33.4347C15.0415 36.67 8.67963 45.0277 8.3855 54.9102C8.35315 55.997 9.20798 56.9043 10.2948 56.9366C11.3816 56.969 12.2889 56.1141 12.3213 55.0273C12.6366 44.4313 21.3267 35.9375 31.9999 35.9375C42.6731 35.9375 51.3631 44.4313 51.6785 55.0273C51.7108 56.1141 52.6181 56.969 53.7049 56.9366C54.7918 56.9043 55.6466 55.997 55.6143 54.9102C55.3201 45.0278 48.9584 36.6702 40.1266 33.4349C43.9363 30.8357 46.4374 26.4599 46.4374 21.5C46.4374 13.5264 39.9736 7.0625 32.0001 7.0625ZM21.5003 21.5C21.5003 15.701 26.2013 11 32.0001 11C37.799 11 42.4999 15.701 42.4999 21.5C42.4999 27.299 37.799 32 32.0001 32C26.2013 32 21.5003 27.299 21.5003 21.5Z" />
</svg>
