<svg xmlns="http://www.w3.org/2000/svg" width="16" height="17" viewBox="0 0 16 17">
  <path fill-rule="evenodd" clip-rule="evenodd" d="M10.4999 5.49998C10.4999 6.16302 10.2365 6.7989 9.76771 7.26774C9.29887 7.73659 8.66298 7.99998 7.99994 7.99998C7.3369 7.99998 6.70102 7.73659 6.23218 7.26774C5.76333 6.7989 5.49994 6.16302 5.49994 5.49998C5.49994 4.83694 5.76333 4.20105 6.23218 3.73221C6.70102 3.26337 7.3369 2.99998 7.99994 2.99998C8.66298 2.99998 9.29887 3.26337 9.76771 3.73221C10.2365 4.20105 10.4999 4.83694 10.4999 5.49998ZM10.5609 8.57298C11.1922 8.04662 11.646 7.33856 11.8607 6.54512C12.0753 5.75167 12.0402 4.91138 11.7603 4.13856C11.4804 3.36574 10.9692 2.69791 10.2963 2.22592C9.62339 1.75394 8.82139 1.50073 7.99944 1.50073C7.17749 1.50073 6.37549 1.75394 5.70256 2.22592C5.02963 2.69791 4.51843 3.36574 4.23853 4.13856C3.95862 4.91138 3.92358 5.75167 4.13819 6.54512C4.3528 7.33856 4.80663 8.04662 5.43794 8.57298C4.45353 9.03838 3.61421 9.76273 3.00984 10.6685C2.40547 11.5743 2.0588 12.6273 2.00694 13.715C2.00212 13.911 2.07422 14.1011 2.20782 14.2445C2.34141 14.388 2.52587 14.4735 2.72171 14.4826C2.91754 14.4918 3.10917 14.4239 3.25556 14.2935C3.40195 14.1631 3.49147 13.9806 3.50494 13.785C3.55946 12.6295 4.05684 11.5394 4.89385 10.741C5.73085 9.94251 6.84318 9.49705 7.99994 9.49705C9.1567 9.49705 10.269 9.94251 11.106 10.741C11.943 11.5394 12.4404 12.6295 12.4949 13.785C12.4974 13.8849 12.5197 13.9832 12.5607 14.0743C12.6017 14.1654 12.6605 14.2474 12.7336 14.3154C12.8067 14.3835 12.8927 14.4363 12.9864 14.4707C13.0802 14.5051 13.1799 14.5204 13.2797 14.5157C13.3795 14.5111 13.4773 14.4865 13.5675 14.4435C13.6576 14.4005 13.7383 14.34 13.8047 14.2654C13.8712 14.1908 13.922 14.1037 13.9543 14.0092C13.9867 13.9147 13.9998 13.8146 13.9929 13.715C13.9409 12.6272 13.5941 11.5741 12.9896 10.6683C12.385 9.76253 11.5455 9.03824 10.5609 8.57298Z" />
</svg>