<svg width="16" height="16" viewBox="0 0 16 16" xmlns="http://www.w3.org/2000/svg">
  <path fill-rule="evenodd" clip-rule="evenodd" d="M13.25 0C13.6642 0 14 0.335786 14 0.75V2H15.25C15.6642 2 16 2.33579 16 2.75C16 3.16421 15.6642 3.5 15.25 3.5H14V4.75C14 5.16421 13.6642 5.5 13.25 5.5C12.8358 5.5 12.5 5.16421 12.5 4.75V3.5H11.25C10.8358 3.5 10.5 3.16421 10.5 2.75C10.5 2.33579 10.8358 2 11.25 2H12.5V0.75C12.5 0.335786 12.8358 0 13.25 0ZM5.5 4C4.39543 4 3.5 4.89543 3.5 6C3.5 7.10457 4.39543 8 5.5 8C6.60457 8 7.5 7.10457 7.5 6C7.5 4.89543 6.60457 4 5.5 4ZM7.89928 8.54824C8.57693 7.90996 9 7.00439 9 6C9 4.067 7.433 2.5 5.5 2.5C3.567 2.5 2 4.067 2 6C2 7.00439 2.42307 7.90996 3.10072 8.54824C1.34717 9.39897 0.118783 11.1545 0.00122594 13.2071C-0.0224581 13.6207 0.293579 13.9751 0.707115 13.9988C1.12065 14.0225 1.47509 13.7064 1.49877 13.2929C1.62012 11.1742 3.35838 9.5 5.5 9.5C7.64162 9.5 9.37988 11.1742 9.50123 13.2929C9.52491 13.7064 9.87935 14.0225 10.2929 13.9988C10.7064 13.9751 11.0225 13.6207 10.9988 13.2071C10.8812 11.1545 9.65283 9.39897 7.89928 8.54824Z" />
</svg>
