<svg xmlns="http://www.w3.org/2000/svg" width="14" height="14" viewBox="0 0 14 14" fill="none">
    <g clip-path="url(#clip0_2046_1972)">
        <path fill-rule="evenodd" clip-rule="evenodd"
            d="M1.3125 7C1.3125 3.85888 3.85888 1.3125 7 1.3125C10.1412 1.3125 12.6875 3.85888 12.6875 7C12.6875 10.1412 10.1412 12.6875 7 12.6875C3.85888 12.6875 1.3125 10.1412 1.3125 7ZM7 0C3.134 0 0 3.134 0 7C0 10.866 3.134 14 7 14C10.866 14 14 10.866 14 7C14 3.134 10.866 0 7 0ZM7.65625 4.15625C7.65625 3.79382 7.36243 3.5 7 3.5C6.63757 3.5 6.34375 3.79382 6.34375 4.15625V6.34375H4.15625C3.79382 6.34375 3.5 6.63757 3.5 7C3.5 7.36243 3.79382 7.65625 4.15625 7.65625H6.34375V9.84375C6.34375 10.2062 6.63757 10.5 7 10.5C7.36243 10.5 7.65625 10.2062 7.65625 9.84375V7.65625H9.84375C10.2062 7.65625 10.5 7.36243 10.5 7C10.5 6.63757 10.2062 6.34375 9.84375 6.34375H7.65625V4.15625Z"
            fill="#4294F0" />
    </g>
    <defs>
        <clipPath id="clip0_2046_1972">
            <rect width="14" height="14" fill="white" />
        </clipPath>
    </defs>
</svg>