<svg xmlns="http://www.w3.org/2000/svg" width="14" height="14" viewBox="0 0 14 14" fill="none">
    <path fill-rule="evenodd" clip-rule="evenodd"
        d="M1.75 2.40625C1.75 1.56056 2.43556 0.875 3.28125 0.875H5.46875C5.83118 0.875 6.125 1.16882 6.125 1.53125C6.125 1.89368 5.83118 2.1875 5.46875 2.1875H3.28125C3.16044 2.1875 3.0625 2.28544 3.0625 2.40625V11.5938C3.0625 11.7146 3.16044 11.8125 3.28125 11.8125H5.46875C5.83118 11.8125 6.125 12.1063 6.125 12.4688C6.125 12.8312 5.83118 13.125 5.46875 13.125H3.28125C2.43556 13.125 1.75 12.4394 1.75 11.5938V2.40625ZM10.8844 6.34375H5.90627C5.54383 6.34375 5.25002 6.63757 5.25002 7C5.25002 7.36244 5.54383 7.65625 5.90627 7.65625H10.8844L9.16099 9.37974C8.9047 9.63602 8.9047 10.0515 9.16099 10.3078C9.41727 10.564 9.83273 10.564 10.089 10.3078L12.9328 7.46404C13.189 7.20776 13.189 6.79224 12.9328 6.53596L10.089 3.69221C9.83273 3.43593 9.41727 3.43593 9.16099 3.69221C8.9047 3.94849 8.9047 4.36401 9.16099 4.62029L10.8844 6.34375Z"
        fill="#EC7B6B" />
</svg>