<svg xmlns="http://www.w3.org/2000/svg" width="14" height="15" viewBox="0 0 14 15" fill="none">
    <path fill-rule="evenodd" clip-rule="evenodd"
        d="M6.99997 2.6875C5.56033 2.6875 4.2677 3.31949 3.38523 4.32271L4.43907 5.37655C4.57687 5.51435 4.47927 5.74998 4.28439 5.74998H1.09375C0.972939 5.74998 0.875 5.65204 0.875 5.53123V2.34059C0.875 2.1457 1.11063 2.0481 1.24843 2.18591L2.45578 3.39326C3.57609 2.15441 5.19673 1.375 6.99997 1.375C10.1344 1.375 12.7182 3.72893 13.0813 6.76582C13.1244 7.12569 12.8676 7.45232 12.5077 7.49535C12.1478 7.53839 11.8212 7.28155 11.7781 6.92168C11.493 4.53677 9.4619 2.6875 6.99997 2.6875ZM1.49227 7.50465C1.85214 7.46161 2.17876 7.71845 2.2218 8.07832C2.50702 10.4632 4.53802 12.3125 6.99997 12.3125C8.43964 12.3125 9.73228 11.6805 10.6147 10.6773L9.56095 9.62345C9.42314 9.48564 9.5207 9.25 9.71565 9.25H12.9062C13.0271 9.25 13.125 9.348 13.125 9.46875V12.6594C13.125 12.8543 12.8894 12.9519 12.7516 12.8141L11.5442 11.6067C10.4239 12.8456 8.8032 13.625 6.99997 13.625C3.8655 13.625 1.28178 11.2711 0.918584 8.23418C0.875551 7.87431 1.1324 7.54768 1.49227 7.50465Z"
        fill="#4294F0" />
</svg>