<svg xmlns="http://www.w3.org/2000/svg" width="14" height="15" viewBox="0 0 14 15" fill="none">
    <g clip-path="url(#clip0_2046_665)">
        <path fill-rule="evenodd" clip-rule="evenodd"
            d="M4.8125 3.99995C4.81242 3.52675 4.96578 3.06628 5.24959 2.68762C5.53339 2.30898 5.93232 2.03255 6.38654 1.89985C6.84075 1.76715 7.32575 1.78531 7.76877 1.95161C8.21179 2.11791 8.58894 2.42338 8.84363 2.8222C8.93734 2.96887 9.08556 3.07228 9.25557 3.10969C9.42559 3.1471 9.60347 3.11545 9.75012 3.0217C9.89677 2.92794 10.0002 2.77977 10.0376 2.60977C10.075 2.43976 10.0433 2.26187 9.94963 2.1152C9.54205 1.47715 8.93865 0.988458 8.22979 0.722436C7.52096 0.456415 6.74498 0.42741 6.01827 0.639774C5.29155 0.852138 4.6533 1.29442 4.19926 1.90026C3.74521 2.5061 3.49985 3.24285 3.5 3.99995V5.74995H3.06163C2.71368 5.75018 2.38006 5.88857 2.13412 6.13469C1.88816 6.3808 1.75 6.7145 1.75 7.06245L1.75 12.3124C1.75 12.6605 1.88829 12.9944 2.13442 13.2406C2.38056 13.4867 2.71441 13.6249 3.0625 13.6249H10.9375C11.2856 13.6249 11.6195 13.4867 11.8656 13.2406C12.1118 12.9944 12.25 12.6605 12.25 12.3124V7.06245C12.25 6.71436 12.1118 6.38052 11.8656 6.13437C11.6195 5.88823 11.2856 5.74995 10.9375 5.74995L4.8125 5.74995V3.99995ZM4.15625 7.06245H3.0625L3.0625 12.3124H10.9375V7.06245L4.15625 7.06245Z"
            fill="#5C717C" />
    </g>
    <defs>
        <clipPath id="clip0_2046_665">
            <rect width="14" height="14" fill="white" transform="translate(0 0.5)" />
        </clipPath>
    </defs>
</svg>