<svg width="36" height="36" viewBox="0 0 36 36" fill="none" xmlns="http://www.w3.org/2000/svg">
    <path
        d="M19.5 24.75C19.5 25.5784 18.8284 26.25 18 26.25C17.1716 26.25 16.5 25.5784 16.5 24.75C16.5 23.9216 17.1716 23.25 18 23.25C18.8284 23.25 19.5 23.9216 19.5 24.75Z"
        fill="#99A8B3" />
    <path
        d="M15.725 13.2531C15.8926 12.9178 16.1264 12.6168 16.456 12.397C16.7786 12.1819 17.2593 12 18 12C18.5758 12 19.1497 12.1767 19.5515 12.4781C19.9234 12.757 20.1562 13.1401 20.1562 13.6875C20.1562 14.4066 19.8287 14.9028 19.2245 15.4667C19.0178 15.6596 18.8254 15.82 18.6125 15.9975C18.4768 16.1106 18.3328 16.2307 18.1713 16.3707C17.8025 16.6903 17.3853 17.0814 17.0639 17.5637L16.875 17.8471V20.25C16.875 20.8713 17.3787 21.375 18 21.375C18.6213 21.375 19.125 20.8713 19.125 20.25V18.57C19.2587 18.4194 19.4297 18.2575 19.645 18.0709C19.7403 17.9883 19.8546 17.8927 19.978 17.7894C20.2279 17.5802 20.5157 17.3393 20.7598 17.1115C21.5619 16.3629 22.4062 15.3121 22.4062 13.6875C22.4062 12.3599 21.7797 11.3367 20.9015 10.6781C20.0534 10.042 18.9866 9.75 18 9.75C16.8656 9.75 15.9401 10.0368 15.208 10.5249C14.4829 11.0082 14.0136 11.6447 13.7125 12.2469C13.4346 12.8026 13.6599 13.4784 14.2156 13.7562C14.7713 14.0341 15.4471 13.8088 15.725 13.2531Z"
        fill="#99A8B3" />
    <path fill-rule="evenodd" clip-rule="evenodd"
        d="M14.796 1.79982C16.7027 0.40006 19.2973 0.400061 21.204 1.79982L23.267 3.31433C23.6781 3.6161 24.156 3.81405 24.66 3.89132L27.1897 4.27916C29.5277 4.63762 31.3624 6.47231 31.7208 8.81032L32.1087 11.34C32.186 11.844 32.3839 12.3219 32.6857 12.733L34.2002 14.796C35.5999 16.7027 35.5999 19.2973 34.2002 21.204L32.6857 23.267C32.3839 23.6781 32.186 24.156 32.1087 24.66L31.7208 27.1897C31.3624 29.5277 29.5277 31.3624 27.1897 31.7208L24.66 32.1087C24.156 32.186 23.6781 32.3839 23.267 32.6857L21.204 34.2002C19.2973 35.5999 16.7027 35.5999 14.796 34.2002L12.733 32.6857C12.3219 32.3839 11.844 32.186 11.34 32.1087L8.81032 31.7208C6.47231 31.3624 4.63762 29.5277 4.27916 27.1897L3.89132 24.66C3.81405 24.156 3.61609 23.6781 3.31433 23.267L1.79982 21.204C0.40006 19.2973 0.400061 16.7027 1.79982 14.796L3.31433 12.733C3.6161 12.3219 3.81405 11.844 3.89132 11.34L4.27916 8.81032C4.63762 6.47231 6.47231 4.63762 8.81032 4.27916L11.34 3.89132C11.844 3.81405 12.3219 3.6161 12.733 3.31433L14.796 1.79982ZM19.8725 3.61354C18.7582 2.79549 17.2418 2.79549 16.1275 3.61354L14.0645 5.12805C13.3612 5.6444 12.5434 5.98311 11.681 6.11534L9.1513 6.50318C7.78491 6.71267 6.71267 7.78491 6.50318 9.1513L6.11534 11.681C5.98311 12.5434 5.6444 13.3612 5.12805 14.0645L3.61354 16.1275C2.79549 17.2418 2.79549 18.7582 3.61354 19.8725L5.12805 21.9355C5.6444 22.6388 5.98311 23.4566 6.11534 24.319L6.50318 26.8487C6.71267 28.2151 7.78491 29.2873 9.1513 29.4968L11.681 29.8847C12.5434 30.0169 13.3612 30.3556 14.0645 30.872L16.1275 32.3865C17.2418 33.2045 18.7582 33.2045 19.8725 32.3865L21.9355 30.872C22.6388 30.3556 23.4566 30.0169 24.319 29.8847L26.8487 29.4968C28.2151 29.2873 29.2873 28.2151 29.4968 26.8487L29.8847 24.319C30.0169 23.4566 30.3556 22.6388 30.872 21.9355L32.3865 19.8725C33.2045 18.7582 33.2045 17.2418 32.3865 16.1275L30.872 14.0645C30.3556 13.3612 30.0169 12.5434 29.8847 11.681L29.4968 9.1513C29.2873 7.78491 28.2151 6.71267 26.8487 6.50318L24.319 6.11534C23.4566 5.98311 22.6388 5.6444 21.9355 5.12805L19.8725 3.61354Z"
        fill="#99A8B3" />
</svg>