<svg width="48" height="48" viewBox="0 0 48 48" xmlns="http://www.w3.org/2000/svg">
  <path d="M34.0607 19.5607C34.6464 18.9749 34.6464 18.0251 34.0607 17.4393C33.4749 16.8536 32.5251 16.8536 31.9393 17.4393L21 28.3787L16.0607 23.4393C15.4749 22.8536 14.5251 22.8536 13.9393 23.4393C13.3536 24.0251 13.3536 24.9749 13.9393 25.5607L19.9393 31.5607C20.5251 32.1464 21.4749 32.1464 22.0607 31.5607L34.0607 19.5607Z" />
  <path fill-rule="evenodd" clip-rule="evenodd" d="M28.272 2.39976C25.7298 0.533414 22.2702 0.533413 19.728 2.39976L16.9773 4.4191C16.4292 4.82146 15.7921 5.0854 15.12 5.18843L11.7471 5.70555C8.62975 6.18349 6.18349 8.62975 5.70555 11.7471L5.18843 15.12C5.0854 15.7921 4.82146 16.4293 4.4191 16.9773L2.39976 19.728C0.533414 22.2702 0.533413 25.7298 2.39976 28.272L4.4191 31.0227C4.82146 31.5707 5.0854 32.2079 5.18843 32.88L5.70555 36.2529C6.18349 39.3703 8.62975 41.8165 11.7471 42.2945L15.12 42.8116C15.7921 42.9146 16.4292 43.1785 16.9773 43.5809L19.728 45.6002C22.2702 47.4666 25.7298 47.4666 28.272 45.6002L31.0227 43.5809C31.5707 43.1785 32.2079 42.9146 32.88 42.8116L36.2529 42.2945C39.3703 41.8165 41.8165 39.3703 42.2945 36.2529L42.8116 32.88C42.9146 32.208 43.1785 31.5708 43.5809 31.0227L45.6002 28.272C47.4666 25.7298 47.4666 22.2702 45.6002 19.728L43.5809 16.9773C43.1785 16.4293 42.9146 15.7921 42.8116 15.12L42.2945 11.7471C41.8165 8.62975 39.3703 6.18349 36.2529 5.70555L32.88 5.18843C32.2079 5.0854 31.5707 4.82146 31.0227 4.41911L28.272 2.39976ZM21.5033 4.81805C22.9891 3.72731 25.0109 3.72732 26.4967 4.81805L29.2473 6.8374C30.1851 7.52586 31.2754 7.97748 32.4254 8.15378L35.7983 8.6709C37.6201 8.95022 39.0498 10.3799 39.3291 12.2017L39.8462 15.5746C40.0225 16.7246 40.4741 17.8149 41.1626 18.7527L43.1819 21.5033C44.2727 22.9891 44.2727 25.0109 43.1819 26.4967L41.1626 29.2473C40.4741 30.1851 40.0225 31.2754 39.8462 32.4254L39.3291 35.7983C39.0498 37.6201 37.6201 39.0498 35.7983 39.3291L32.4254 39.8462C31.2754 40.0225 30.1851 40.4741 29.2473 41.1626L26.4967 43.1819C25.0109 44.2727 22.9891 44.2727 21.5033 43.1819L18.7527 41.1626C17.8149 40.4741 16.7246 40.0225 15.5746 39.8462L12.2017 39.3291C10.3799 39.0498 8.95022 37.6201 8.6709 35.7983L8.15378 32.4254C7.97748 31.2754 7.52586 30.1851 6.8374 29.2473L4.81805 26.4967C3.72732 25.0109 3.72732 22.9891 4.81805 21.5033L6.8374 18.7527C7.52586 17.8149 7.97748 16.7246 8.15378 15.5746L8.6709 12.2017C8.95022 10.3799 10.3799 8.95022 12.2017 8.6709L15.5746 8.15378C16.7246 7.97748 17.8149 7.52586 18.7527 6.8374L21.5033 4.81805Z" />
</svg>
