<svg width="16" height="16" viewBox="0 0 14 14" xmlns="http://www.w3.org/2000/svg">
  <path fill-rule="evenodd" clip-rule="evenodd" d="M8.38694 0.45444C7.56158 -0.15148 6.43842 -0.15148 5.61306 0.45444L4.80146 1.05026C4.6675 1.1486 4.51176 1.21312 4.34751 1.2383L3.3523 1.39088C2.34024 1.54605 1.54605 2.34024 1.39088 3.3523L1.2383 4.34751C1.21312 4.51176 1.1486 4.6675 1.05026 4.80146L0.45444 5.61306C-0.15148 6.43842 -0.15148 7.56157 0.45444 8.38694L1.05026 9.19852C1.1486 9.33249 1.21312 9.48824 1.2383 9.65247L1.39088 10.6477C1.54605 11.6597 2.34024 12.454 3.3523 12.6091L4.34751 12.7617C4.51176 12.7869 4.6675 12.8514 4.80146 12.9497L5.61306 13.5455C6.43842 14.1515 7.56157 14.1515 8.38694 13.5455L9.19852 12.9497C9.33249 12.8514 9.48824 12.7869 9.65247 12.7617L10.6477 12.6091C11.6597 12.454 12.454 11.6597 12.6091 10.6477L12.7617 9.65247C12.7869 9.48824 12.8514 9.33249 12.9497 9.19852L13.5455 8.38694C14.1515 7.56157 14.1515 6.43842 13.5455 5.61306L12.9497 4.80146C12.8514 4.6675 12.7869 4.51176 12.7617 4.34751L12.6091 3.3523C12.454 2.34024 11.6597 1.54605 10.6477 1.39088L9.65247 1.2383C9.48824 1.21312 9.33249 1.1486 9.19852 1.05026L8.38694 0.45444ZM6.38977 1.51245C6.75292 1.24585 7.24708 1.24585 7.61023 1.51245L8.42182 2.10827C8.72629 2.33178 9.08023 2.4784 9.45359 2.53564L10.4488 2.68822C10.8941 2.75649 11.2435 3.10592 11.3117 3.5512L11.4643 4.5464C11.5216 4.91974 11.6682 5.27371 11.8918 5.57818L12.4876 6.38977C12.7542 6.75292 12.7542 7.24708 12.4876 7.61023L11.8918 8.42182C11.6682 8.72629 11.5216 9.08023 11.4643 9.45359L11.3117 10.4488C11.2435 10.8941 10.8941 11.2435 10.4488 11.3117L9.45359 11.4643C9.08023 11.5216 8.72629 11.6682 8.42182 11.8918L7.61023 12.4876C7.24708 12.7542 6.75292 12.7542 6.38977 12.4876L5.57818 11.8918C5.27371 11.6682 4.91974 11.5216 4.5464 11.4643L3.5512 11.3117C3.10592 11.2435 2.75649 10.8941 2.68822 10.4488L2.53564 9.45359C2.4784 9.08023 2.33178 8.72629 2.10827 8.42182L1.51245 7.61023C1.24585 7.24708 1.24585 6.75292 1.51245 6.38977L2.10827 5.57817C2.33178 5.27371 2.4784 4.91974 2.53564 4.5464L2.68822 3.5512C2.75649 3.10592 3.10592 2.75649 3.5512 2.68822L4.5464 2.53564C4.91974 2.4784 5.27371 2.33178 5.57817 2.10827L6.38977 1.51245ZM9.87026 5.93279C10.1266 5.67651 10.1266 5.26099 9.87026 5.00471C9.61398 4.74843 9.19852 4.74843 8.94224 5.00471L6.125 7.82192L5.05779 6.75471C4.80151 6.49843 4.38599 6.49843 4.12971 6.75471C3.87343 7.01099 3.87343 7.42651 4.12971 7.68279L5.66096 9.21401C5.91724 9.4703 6.33276 9.4703 6.58904 9.21401L9.87026 5.93279Z" />
</svg>
