<svg xmlns="http://www.w3.org/2000/svg" width="15" height="14" viewBox="0 0 15 14">
  <path d="M5.77654 4.34846C5.52026 4.09218 5.10474 4.09218 4.84846 4.34846C4.59218 4.60474 4.59218 5.02026 4.84846 5.27654L6.57192 7L4.84846 8.72346C4.59218 8.97974 4.59218 9.39525 4.84846 9.65153C5.10474 9.90782 5.52026 9.90782 5.77654 9.65154L7.5 7.92808L9.22346 9.65154C9.47974 9.90782 9.89526 9.90782 10.1515 9.65154C10.4078 9.39526 10.4078 8.97974 10.1515 8.72346L8.42808 7L10.1515 5.27655C10.4078 5.02026 10.4078 4.60475 10.1515 4.34847C9.89526 4.09219 9.47974 4.09219 9.22346 4.34847L7.5 6.07192L5.77654 4.34846Z" />
  <path fill-rule="evenodd" clip-rule="evenodd" d="M2.55025 2.05025C-0.183417 4.78392 -0.183417 9.21608 2.55025 11.9497C5.28392 14.6834 9.71608 14.6834 12.4497 11.9497C15.1834 9.21608 15.1834 4.78392 12.4497 2.05025C9.71608 -0.683417 5.28392 -0.683417 2.55025 2.05025ZM3.47833 11.0217C1.25722 8.80056 1.25722 5.19944 3.47833 2.97833C5.69944 0.757223 9.30056 0.757223 11.5217 2.97833C13.7428 5.19944 13.7428 8.80056 11.5217 11.0217C9.30056 13.2428 5.69944 13.2428 3.47833 11.0217Z" />
</svg>