<svg width="14" height="15" viewBox="0 0 14 15" fill="none" xmlns="http://www.w3.org/2000/svg">
    <g clip-path="url(#clip0_2046_3359)">
        <path fill-rule="evenodd" clip-rule="evenodd"
            d="M2.05025 12.4497C-0.683417 9.71608 -0.683417 5.28392 2.05025 2.55025C4.78392 -0.183417 9.21608 -0.183417 11.9497 2.55025C14.6834 5.28392 14.6834 9.71608 11.9497 12.4497C9.21608 15.1834 4.78392 15.1834 2.05025 12.4497ZM5.27653 4.84846C5.02025 4.59218 4.60474 4.59218 4.34845 4.84846C4.09217 5.10474 4.09217 5.52026 4.34845 5.77654L6.07192 7.5L4.34845 9.22346C4.09217 9.47974 4.09217 9.89526 4.34845 10.1515C4.60474 10.4078 5.02025 10.4078 5.27653 10.1515L6.99999 8.42808L8.72345 10.1515C8.97973 10.4078 9.39525 10.4078 9.65153 10.1515C9.90781 9.89526 9.90781 9.47974 9.65153 9.22346L7.92807 7.5L9.65153 5.77654C9.90781 5.52026 9.90781 5.10475 9.65153 4.84847C9.39525 4.59219 8.97973 4.59219 8.72345 4.84847L6.99999 6.57192L5.27653 4.84846Z"
            fill="#EC7B6B" />
    </g>
    <defs>
        <clipPath id="clip0_2046_3359">
            <rect width="14" height="14" fill="white" transform="translate(0 0.5)" />
        </clipPath>
    </defs>
</svg>