<?xml version="1.0" encoding="UTF-8" standalone="no"?>
<svg
   width="38"
   height="38"
   viewBox="0 0 38 38"
   fill="none"
   version="1.1"
   id="svg14"
   sodipodi:docname="biglocalnews.svg"
   inkscape:version="1.1.2 (0a00cf5339, 2022-02-04)"
   xmlns:inkscape="http://www.inkscape.org/namespaces/inkscape"
   xmlns:sodipodi="http://sodipodi.sourceforge.net/DTD/sodipodi-0.dtd"
   xmlns="http://www.w3.org/2000/svg"
   xmlns:svg="http://www.w3.org/2000/svg">
  <defs
     id="defs18">
    <rect
       x="0"
       y="0"
       width="722.87054"
       height="164.5484"
       id="rect58860" />
  </defs>
  <sodipodi:namedview
     id="namedview16"
     pagecolor="#ffffff"
     bordercolor="#666666"
     borderopacity="1.0"
     inkscape:pageshadow="2"
     inkscape:pageopacity="0.0"
     inkscape:pagecheckerboard="0"
     showgrid="false"
     inkscape:zoom="15.705214"
     inkscape:cx="17.382762"
     inkscape:cy="16.077463"
     inkscape:window-width="1868"
     inkscape:window-height="1016"
     inkscape:window-x="52"
     inkscape:window-y="27"
     inkscape:window-maximized="1"
     inkscape:current-layer="svg14" />
  <circle
     style="fill:#8b1d22;fill-opacity:1;stroke-width:20.882;stroke-linecap:round;stroke-linejoin:round;stop-color:#000000"
     id="path1680"
     cx="19"
     cy="19"
     r="19" />
  <g
     aria-label="BLN"
     transform="matrix(0.21294137,0,0,0.21294137,2.8122171,5.5846937)"
     id="text58858"
     style="font-size:120px;line-height:1.25;font-family:'Rift Soft Bold';-inkscape-font-specification:'Rift Soft Bold, ';letter-spacing:0px;word-spacing:13.2051px;white-space:pre;shape-inside:url(#rect58860);fill:#ffffff">
    <path
       d="m 48.12,48.12 q 0,5.04 -2.4,8.88 -2.28,3.72 -6.96,4.32 9.84,1.56 9.84,13.32 v 13.8 q 0,7.8 -5.64,12.24 Q 37.32,105 27.72,105 H 10.8 Q 6,105 6,100.2 V 25.8 Q 6,21 10.8,21 h 17.16 q 9.6,0 14.88,4.32 5.28,4.32 5.28,12.24 z M 19.92,33 v 22.68 h 7.8 q 6.48,0 6.48,-6.48 V 39.48 Q 34.2,33 27.72,33 Z m 14.76,40.92 q 0,-6.48 -6.48,-6.48 H 19.92 V 93 h 8.28 q 6.48,0 6.48,-6.48 z"
       id="path926" />
    <path
       d="m 89.519998,92.52 q 4.8,0 4.8,4.8 v 2.88 q 0,4.8 -4.8,4.8 h -25.8 q -4.8,0 -4.8,-4.8 V 25.8 q 0,-4.8 4.8,-4.8 h 4.32 q 4.8,0 4.8,4.8 v 66.72 z"
       id="path928" />
    <path
       d="m 114.47981,100.2 q 0,4.8 -4.8,4.8 h -3.12 q -4.8,0 -4.8,-4.8 V 25.8 q 0,-4.8 4.8,-4.8 h 5.04 q 4.08,0 5.4,3.96 l 16.32,48 V 25.8 q 0,-4.8 4.8,-4.8 h 3.12 q 4.8,0 4.8,4.8 v 74.4 q 0,4.8 -4.8,4.8 h -4.32 q -4.2,0 -5.4,-3.96 l -17.04,-50.64 z"
       id="path930" />
  </g>
</svg>
