<svg width="81" height="82" viewBox="0 0 81 82" fill="none" xmlns="http://www.w3.org/2000/svg">
<path d="M40.5 81.0384C62.8675 81.0384 81 62.8974 81 40.5192C81 18.1411 62.8675 0 40.5 0C18.1325 0 0 18.1411 0 40.5192C0 62.8974 18.1325 81.0384 40.5 81.0384Z" fill="#E0E0E0"/>
<path d="M76.0199 48.3495C75.0653 47.0469 73.8882 45.8716 72.5211 44.8559C72.2829 44.679 71.986 44.5134 71.6717 44.3382C71.0022 43.965 70.1693 43.5005 70.1174 42.9882C70.0325 42.152 69.9985 41.3591 69.9657 40.5923C69.8688 38.3289 69.777 36.1911 68.3725 33.7719C65.2223 28.3483 60.6602 25.4178 53.5797 24.27C52.7273 24.1318 51.8157 24.0616 50.8704 24.0616C46.438 24.0616 41.864 25.585 39.2181 27.9424C39.0701 28.0742 38.9365 28.1971 38.8137 28.3101C38.388 28.7019 38.1066 28.9609 37.9093 28.9609C37.7227 28.9609 37.3938 28.7861 36.9045 28.4263C35.5607 27.4385 34.0941 26.6021 32.5456 25.9399C30.3632 25.007 28.1601 24.534 25.9974 24.534C24.796 24.534 23.6127 24.6841 22.4802 24.9798C21.5431 25.2245 20.7072 25.6548 19.8989 26.0706C19.1753 26.443 18.4918 26.7946 17.7634 27.0072C17.661 27.0372 17.5558 27.0517 17.4419 27.0517C16.8052 27.0517 16.0677 26.5952 15.3543 26.1535C14.9334 25.8932 14.5361 25.6472 14.1423 25.4815C12.3717 24.7366 10.3287 24.343 8.23377 24.343C7.07518 24.343 5.94526 24.4642 4.87508 24.7035C4.79765 24.7208 4.65658 24.7454 4.47176 24.7778C4.11032 24.8415 3.59905 24.932 3.05912 25.0504C2.52589 26.3408 2.05782 27.6647 1.65804 29.0183L1.94912 28.9602C3.92197 28.566 6.02231 28.4831 7.43699 28.4831C7.73888 28.4831 7.99907 28.4868 8.20771 28.4909C9.61029 28.5183 10.9598 28.7762 12.2184 29.2572C13.7209 29.8314 15.1404 30.7418 16.4377 31.9631C16.8477 32.3491 17.2448 32.5368 17.6521 32.5368C18.3526 32.5368 18.8084 32.0037 19.2493 31.4879C19.4221 31.2861 19.6005 31.077 19.7874 30.9088C21.688 29.1965 24.1671 28.8371 25.912 28.8371C26.3032 28.8371 26.7056 28.855 27.1082 28.89C29.8162 29.1259 32.5259 30.2934 34.9441 32.2665L35.0143 32.3238C35.9594 33.0951 37.0307 33.9691 37.6741 34.9493C37.7843 35.1173 38.1196 35.6284 38.6769 35.6284C39.4709 35.6284 39.8143 34.6501 40.0651 33.9358C40.1156 33.7919 40.1634 33.6561 40.1963 33.5848C41.775 30.166 45.7503 28.125 50.8298 28.125C52.6737 28.125 54.5042 28.4036 56.1234 28.9306C60.8794 30.4783 66.0193 34.1574 66.1816 39.8419C66.2197 41.1878 66.0321 42.6519 65.6079 44.3187C65.2705 45.6454 66.8371 46.1895 67.7731 46.5148C68.0588 46.614 68.3541 46.7164 68.5021 46.8021C71.0625 48.2839 73.1824 50.4797 74.1729 52.6756C74.4037 53.1877 75.3311 55.8809 75.6503 59.7004L75.7201 60.5348C76.8848 58.4878 77.8752 56.3291 78.6736 54.0792C78.0421 51.8537 76.7704 49.3728 76.0199 48.3495Z" fill="#87BBF1"/>
</svg>
