<svg width="25" height="18" viewBox="0 0 25 18" fill="none" xmlns="http://www.w3.org/2000/svg">
<path d="M3.80748 1.83521H20.7515" stroke="#899196" stroke-width="2.08145" stroke-miterlimit="10"/>
<path d="M3.80747 1.83521H2.37647C1.92063 1.83521 1.55118 2.20466 1.55118 2.6605V15.1747C1.55118 15.6305 1.92063 16 2.37647 16H22.182C22.6378 16 23.0073 15.6305 23.0073 15.1747V2.6605C23.0073 2.20466 22.6378 1.83521 22.182 1.83521H20.751" stroke="#899196" stroke-width="2.08145" stroke-miterlimit="10"/>
<path d="M3.80748 1.83521C3.80748 2.12245 3.91727 2.40969 4.13687 2.62928L11.4854 9.97733C11.9241 10.416 12.6354 10.416 13.0741 9.97733L20.4221 2.62928C20.6417 2.40917 20.7515 2.12192 20.7515 1.83521" stroke="#899196" stroke-width="2.08145" stroke-miterlimit="10"/>
</svg>
