<svg width="38" height="38" viewBox="0 0 38 38" fill="none" xmlns="http://www.w3.org/2000/svg">
<circle cx="18.0262" cy="19.0276" r="17.0247" fill="white"/>
<path d="M19.882 22.449V20.8301C18.63 20.8462 17.3791 20.8574 16.1295 20.8735C14.8799 20.8884 13.6291 20.9046 12.3782 20.9182V22.3423C13.629 22.3596 14.8786 22.3769 16.1295 22.3944C17.3792 22.4118 18.63 22.4292 19.882 22.449Z" fill="white"/>
<path d="M19.882 18.8803V17.2651C18.63 17.3514 17.3791 17.4365 16.1295 17.5221C14.8799 17.6078 13.6291 17.6966 12.3782 17.7822V19.2038C13.629 19.1491 14.8786 19.0945 16.1295 19.0405C17.3792 18.9871 18.63 18.9349 19.882 18.8803Z" fill="white"/>
<path d="M19.882 26.0122V24.3983C18.63 24.34 17.3791 24.2816 16.1295 24.227C14.8799 24.1711 13.6291 24.1128 12.3782 24.0569V25.4759C13.629 25.5678 14.8786 25.6559 16.1295 25.7441C17.3792 25.8334 18.63 25.9216 19.882 26.0122Z" fill="white"/>
<path d="M10.6955 21.6309V28.4083C12.5073 28.6392 14.3203 28.8752 16.1308 29.1073C17.94 29.3394 19.753 29.5728 21.5635 29.8088V21.642V13.4717C19.7543 13.7001 17.94 13.9304 16.1308 14.1595C14.3191 14.3892 12.506 14.6201 10.6955 14.8492V21.6309V21.6309ZM12.3782 17.7822C13.629 17.6966 14.8799 17.6078 16.1295 17.5221C17.3792 17.4365 18.63 17.3514 19.882 17.2652V18.8804C18.63 18.935 17.3791 18.9871 16.1295 19.0405C14.8787 19.0946 13.6291 19.1491 12.3782 19.2037V17.7822V17.7822ZM12.3782 20.9183C13.629 20.9046 14.8799 20.8885 16.1295 20.8736C17.3792 20.8574 18.63 20.8463 19.882 20.8301V22.4491C18.63 22.4292 17.3791 22.4119 16.1295 22.3945C14.8787 22.3771 13.6291 22.3597 12.3782 22.3423V20.9183V20.9183ZM12.3782 24.0569C13.629 24.1128 14.8799 24.1711 16.1295 24.227C17.3792 24.2816 18.63 24.34 19.882 24.3983V26.0122C18.63 25.9216 17.3791 25.8334 16.1295 25.744C14.8787 25.6559 13.6291 25.5678 12.3782 25.4759V24.0569V24.0569Z" fill="#3670FF"/>
<path d="M18.9079 0C8.46546 0 0 8.46896 0 18.9157C0 29.3617 8.46555 37.8314 18.9079 37.8314C29.3466 37.8314 37.8121 29.3617 37.8121 18.9151C37.8121 8.46835 29.3466 0 18.9079 0ZM26.6835 24.1822C25.4475 24.1822 24.4474 23.1815 24.4474 21.9474C24.4474 21.0337 24.9984 20.2466 25.7815 19.9014V16.6648V8.01338L14.8799 9.58571V12.2481L16.1307 12.0451C18.5406 11.6528 20.953 11.2618 23.3653 10.8695V21.6408V32.4084C20.953 32.0099 18.5407 31.6114 16.1307 31.2153C13.7183 30.8192 11.3072 30.422 8.89607 30.0259V21.6283V13.2246C10.2872 12.9967 11.6808 12.7695 13.073 12.543V7.77997L27.5869 5.42173V19.9015C28.3711 20.2467 28.9184 21.0337 28.9184 21.9475C28.9185 23.1815 27.917 24.1822 26.6835 24.1822Z" fill="#3670FF"/>
</svg>
