<svg width="22" height="26" viewBox="0 0 22 26" fill="none" xmlns="http://www.w3.org/2000/svg">
<path d="M5.4805 8.91675H3.38475C2.69056 8.91675 2.12717 9.48015 2.12717 10.1743V22.7502C2.12717 23.445 2.69056 24.0077 3.38475 24.0077H18.8945C19.5887 24.0077 20.1521 23.445 20.1521 22.7502V10.1743C20.1521 9.48015 19.5887 8.91675 18.8945 8.91675H16.7987" stroke="#899196" stroke-width="2.51517" stroke-miterlimit="10"/>
<path d="M5.4805 8.91675H16.7987" stroke="#899196" stroke-width="2.51517" stroke-miterlimit="10"/>
<path d="M5.4805 8.91671C5.4805 5.0968 8.01453 2 11.1396 2C14.2647 2 16.7987 5.0968 16.7987 8.91671" stroke="#899196" stroke-width="2.51517" stroke-miterlimit="10"/>
<path d="M11.1396 19.6282C10.2964 19.6282 9.68398 18.3781 9.68398 16.6552C9.68398 14.9324 10.2964 13.6824 11.1396 13.6824C11.9835 13.6824 12.5953 14.9324 12.5953 16.6552C12.5953 18.3781 11.9828 19.6282 11.1396 19.6282Z" fill="#899196"/>
</svg>
