<svg width="38" height="39" viewBox="0 0 38 39" fill="none" xmlns="http://www.w3.org/2000/svg">
<path d="M19.0958 0.45459C8.65333 0.45459 0.187866 8.92355 0.187866 19.3703C0.187866 29.8163 8.65342 38.2859 19.0958 38.2859C29.5344 38.2859 38 29.8163 38 19.3697C38 8.92294 29.5344 0.45459 19.0958 0.45459Z" fill="#01BE14"/>
<g clip-path="url(#clip0)">
<path d="M13.0924 8.20312V13.2867" stroke="black" stroke-width="1.30698" stroke-miterlimit="10" stroke-linecap="round"/>
<path d="M26.9652 17.2041H23.5193V21.8779H26.9652V17.2041Z" fill="#FF6326"/>
<path d="M24.0844 15.5701L29.6442 13.6549C30.2624 13.442 30.4869 13.7231 30.144 14.2792L25.5098 21.7935" fill="#FF6326"/>
<path d="M24.0844 15.5701L29.6442 13.6549C30.2624 13.442 30.4869 13.7231 30.144 14.2792L25.5098 21.7935" stroke="black" stroke-width="1.30698" stroke-miterlimit="10"/>
<path d="M24.3363 18.0359L30.7113 24.1359C31.1835 24.5876 31.0349 24.9574 30.3814 24.9574H24.0243" fill="#FF6326"/>
<path d="M24.3363 18.0359L30.7113 24.1359C31.1835 24.5876 31.0349 24.9574 30.3814 24.9574H24.0243" stroke="black" stroke-width="1.30698" stroke-miterlimit="10"/>
<path d="M17.281 11.9163C12.6216 11.9163 8.84445 15.6935 8.84445 20.3528V28.7894H17.281C21.9403 28.7894 25.7175 25.0122 25.7175 20.3528C25.7175 15.6935 21.9406 11.9163 17.281 11.9163Z" fill="#FFCC00" stroke="black" stroke-width="1.30698" stroke-miterlimit="10"/>
<path d="M17.281 25.0464C19.9716 25.0464 22.1528 22.8652 22.1528 20.1745C22.1528 17.4839 19.9716 15.3027 17.281 15.3027C14.5903 15.3027 12.4092 17.4839 12.4092 20.1745C12.4092 22.8652 14.5903 25.0464 17.281 25.0464Z" fill="white"/>
<path d="M18.3901 23.4425C19.8229 23.4425 20.9845 22.2809 20.9845 20.8481C20.9845 19.4152 19.8229 18.2537 18.3901 18.2537C16.9572 18.2537 15.7957 19.4152 15.7957 20.8481C15.7957 22.2809 16.9572 23.4425 18.3901 23.4425Z" fill="black"/>
<path d="M7.9364 12.4048L11.417 14.1494" stroke="black" stroke-width="1.30698" stroke-miterlimit="10" stroke-linecap="round"/>
<path d="M8.80736 8.34424L12.4092 13.4349" stroke="black" stroke-width="1.30698" stroke-miterlimit="10" stroke-linecap="round"/>
</g>
<defs>
<clipPath id="clip0">
<rect width="24.0016" height="21.537" fill="white" transform="translate(7.46109 7.72778)"/>
</clipPath>
</defs>
</svg>
