<svg width="18" height="25" viewBox="0 0 18 25" fill="none" xmlns="http://www.w3.org/2000/svg">
<path d="M9.21173 2C6.46305 2 4.23474 4.22875 4.23474 6.97698C4.23474 7.68004 4.38119 8.34804 4.64411 8.95436C5.40883 10.7192 7.16615 11.954 9.21173 11.954C11.2573 11.954 13.0146 10.7192 13.7793 8.95436C14.0423 8.34766 14.1887 7.67966 14.1887 6.97698C14.1887 4.22875 11.9604 2 9.21173 2Z" stroke="#899196" stroke-width="2.51517" stroke-miterlimit="10"/>
<path d="M9.21172 12.6663C5.22886 12.6663 2 15.9292 2 19.9526C2 20.9819 2.2122 21.9599 2.59318 22.8475H9.21172H15.8303C16.2112 21.9593 16.4234 20.9813 16.4234 19.9526C16.4234 15.9292 13.1946 12.6663 9.21172 12.6663Z" stroke="#899196" stroke-width="2.51517" stroke-miterlimit="10"/>
</svg>
