<svg xmlns="http://www.w3.org/2000/svg" width="159" height="28" viewBox="0 0 159 28" fill="none">
  <g clip-path="url(#clip0_1820_4529)">
    <path fill-rule="evenodd" clip-rule="evenodd" d="M100.358 27.2371V14.8145H102.401V27.2371H100.358ZM87.4945 21.2982C87.4945 24.7359 90.0607 27.4415 93.5046 27.4415C95.7161 27.4415 97.0666 26.6243 98.2994 25.3311L96.9651 23.9699C95.9527 24.923 95.0239 25.5186 93.5722 25.5186C91.3097 25.5186 89.6724 23.6125 89.6724 21.2636C89.6724 18.9154 91.3097 17.0436 93.5722 17.0436C94.9225 17.0436 95.9354 17.6391 96.8808 18.5239L98.2141 16.9753C97.0839 15.8868 95.7668 15.1207 93.5889 15.1207C90.01 15.1207 87.4945 17.8943 87.4945 21.2982ZM4.40633 17.2307H2.07645V25.3311H4.40633C6.88792 25.3311 8.50853 23.6464 8.50853 21.2982C8.50853 18.9496 6.88792 17.2307 4.40633 17.2307ZM4.40633 27.2371H0V15.325H4.40633C8.12016 15.325 10.6863 17.8942 10.6863 21.2636C10.6863 24.6334 8.12016 27.2371 4.40633 27.2371ZM17.202 19.8685C15.5646 19.8685 14.518 21.1618 14.518 22.745C14.518 24.3444 15.6492 25.6546 17.2359 25.6546C18.8904 25.6546 19.9371 24.3614 19.9371 22.7785C19.9371 21.179 18.8058 19.8685 17.202 19.8685ZM17.202 27.4415C14.4841 27.4415 12.4751 25.3483 12.4751 22.7785C12.4751 20.1921 14.5009 18.0648 17.2359 18.0648C19.971 18.0648 21.9799 20.1579 21.9799 22.745C21.9799 25.3142 19.9538 27.4415 17.202 27.4415ZM23.5663 22.7785C23.5663 25.3483 25.5245 27.4415 28.175 27.4415C29.9137 27.4415 30.9436 26.7434 31.8216 25.7564L30.5891 24.5315C29.9477 25.1951 29.2387 25.6546 28.2763 25.6546C26.7061 25.6546 25.6088 24.3614 25.6088 22.745C25.6088 21.1618 26.6893 19.8685 28.175 19.8685C29.2048 19.8685 29.8634 20.3277 30.4878 20.9919L31.7538 19.6135C30.9267 18.6941 29.8801 18.0648 28.1918 18.0648C25.5245 18.0648 23.5663 20.2086 23.5663 22.7785ZM39.5528 18.2522H41.5956V27.2371H39.5528V25.842C38.9791 26.6926 38.1517 27.4242 36.7674 27.4242C34.7585 27.4242 33.5936 26.0629 33.5936 23.9699V18.2522H35.6362V23.3574C35.6362 24.7525 36.3283 25.5521 37.5441 25.5521C38.7257 25.5521 39.5528 24.7186 39.5528 23.3229V18.2522ZM57.7175 21.5025C57.7175 19.3072 56.5356 18.0648 54.5944 18.0648C53.2436 18.0648 52.2984 18.6941 51.5724 19.6473C51.0997 18.6941 50.2048 18.0648 48.9219 18.0648C47.5544 18.0648 46.7777 18.8132 46.2041 19.6135V18.2522H44.1612V27.2371H46.2041V22.1833C46.2041 20.7875 46.9805 19.9369 48.1117 19.9369C49.2429 19.9369 49.9179 20.7192 49.9179 22.1149V27.2371H51.9607V22.1661C51.9607 20.7192 52.7543 19.9369 53.8683 19.9369C55.0164 19.9369 55.6749 20.7023 55.6749 22.1315V27.2371H57.7175V21.5025ZM66.3095 22.115C66.1743 20.7876 65.3975 19.7498 64.0471 19.7498C62.7977 19.7498 61.92 20.7193 61.7343 22.115H66.3095ZM64.3173 25.7564C65.3133 25.7564 66.0225 25.3822 66.7314 24.6842L67.9302 25.7564C67.0862 26.778 65.9215 27.4415 64.2834 27.4415C61.7008 27.4415 59.7086 25.5521 59.7086 22.7612C59.7086 20.1751 61.5152 18.0648 64.0642 18.0648C66.9003 18.0648 68.3353 20.3111 68.3353 22.9149C68.3353 23.0777 68.3225 23.2278 68.308 23.3987L68.3014 23.4766H61.7511C61.9878 24.9396 63.0005 25.7564 64.3173 25.7564ZM70.3939 27.2371H72.4368V22.1661C72.4368 20.7703 73.2638 19.9369 74.4457 19.9369C75.6616 19.9369 76.3533 20.7365 76.3533 22.1315V27.2371H78.3962V21.5191C78.3962 19.4263 77.2315 18.0648 75.2225 18.0648C73.8382 18.0648 73.0111 18.7963 72.4368 19.6473V18.2522H70.3939V27.2371ZM83.3255 24.4291C83.3255 25.2293 83.7304 25.5521 84.4225 25.5521C84.8783 25.5521 85.2835 25.4502 85.6886 25.2458V26.9305C85.1821 27.2206 84.6085 27.3904 83.8488 27.3904C82.346 27.3904 81.2826 26.7269 81.2826 24.7525V20.0215H80.1514V18.2523H81.2826V15.7842H83.3255V18.2523H85.7225V20.0215H83.3255V24.4291ZM106.62 22.745C106.62 21.1618 107.667 19.8685 109.305 19.8685C110.908 19.8685 112.039 21.179 112.039 22.7785C112.039 24.3614 110.993 25.6546 109.338 25.6546C107.751 25.6546 106.62 24.3444 106.62 22.745ZM104.578 22.7785C104.578 25.3483 106.587 27.4415 109.305 27.4415C112.057 27.4415 114.083 25.3142 114.083 22.745C114.083 20.1579 112.073 18.0648 109.338 18.0648C106.604 18.0648 104.578 20.1921 104.578 22.7785ZM122.016 18.2523H124.059V27.2371H122.016V25.842C121.442 26.6927 120.615 27.4242 119.231 27.4242C117.222 27.4242 116.058 26.063 116.058 23.9699V18.2523H118.1V23.3574C118.1 24.7525 118.792 25.5521 120.008 25.5521C121.19 25.5521 122.016 24.7186 122.016 23.3229V18.2523ZM128.229 22.745C128.229 20.9409 129.393 19.8517 130.795 19.8517C132.163 19.8517 133.378 20.9919 133.378 22.745C133.378 24.497 132.163 25.6377 130.795 25.6377C129.411 25.6377 128.229 24.5143 128.229 22.745ZM133.344 25.7395V27.2371H135.387V14.8145H133.344V19.6473C132.703 18.8132 131.774 18.0648 130.305 18.0648C128.178 18.0648 126.168 19.7498 126.168 22.745C126.168 25.7395 128.211 27.4242 130.305 27.4242C131.757 27.4242 132.686 26.6754 133.344 25.7395Z" fill="#0C1E27"/>
    <path d="M138.913 3.01918C137.822 2.70487 136.541 2.57871 135.297 2.50155C134.914 2.47794 134.547 2.46667 134.19 2.46667C130.381 2.47477 128.068 3.73098 126.615 4.98685C125.168 6.24412 124.611 7.55108 124.591 7.60747L123.859 9.48667L122.534 7.96547C122.534 7.96547 122.529 7.95984 122.506 7.93376C122.481 7.90698 122.443 7.86575 122.392 7.81078C122.288 7.70225 122.131 7.54016 121.925 7.34212C121.512 6.9457 120.903 6.40339 120.141 5.8403C118.617 4.71023 116.483 3.5178 114.112 3.17388C113.501 3.08403 112.93 3.04457 112.393 3.04457C108.212 3.03857 106.037 5.45903 105.861 5.65777L105.857 5.662L105.026 6.68424L104.071 5.77899C104.07 5.77899 104.07 5.77827 104.05 5.7596C104.029 5.74127 103.996 5.71098 103.949 5.6708C103.856 5.59117 103.711 5.47136 103.52 5.32478C103.136 5.03196 102.566 4.63482 101.842 4.23805C100.395 3.44239 98.354 2.66118 95.9738 2.66188C95.8416 2.66188 95.7074 2.66505 95.5692 2.67033C94.2465 2.71967 93.2447 2.98607 92.463 3.34373L91.4492 1.09839C92.5388 0.597664 93.8742 0.263619 95.4791 0.20583C95.6448 0.198781 95.8091 0.195961 95.9738 0.195961C100.195 0.215343 103.363 2.14037 104.837 3.23802C106.063 2.19604 108.577 0.58393 112.393 0.577587C113.048 0.577587 113.741 0.625507 114.466 0.732981C118.48 1.35105 121.585 3.70209 123.183 5.15563C123.574 4.59466 124.114 3.93641 124.84 3.27607C126.658 1.61321 129.686 -0.00912311 134.19 3.86215e-05C134.597 3.86215e-05 135.017 0.0127303 135.449 0.0398619C136.793 0.124433 138.199 0.293218 139.516 0.629031C139.623 0.681183 145.497 2.13331 148.95 7.01829C150.834 9.71571 151.359 12.3303 151.355 14.3026C151.354 15.3297 151.219 16.1843 151.071 16.8122C152.771 17.6751 156.087 19.7803 157.973 23.8629C158.647 25.3344 158.952 26.6868 159 27.8933L156.555 27.9937C156.519 27.1294 156.304 26.1071 155.751 24.8939C153.828 20.62 149.624 18.8126 149.195 18.6565C149.167 18.646 149.166 18.6452 149.166 18.6452L147.934 18.1946L148.463 16.9929C148.464 16.9905 148.466 16.9834 148.471 16.9722C148.48 16.9489 148.495 16.9087 148.515 16.8513C148.555 16.7378 148.611 16.5581 148.67 16.3221C148.788 15.8498 148.908 15.1532 148.907 14.3026C148.904 12.7514 148.522 10.7041 146.947 8.4359C144.56 4.96324 139.927 3.31095 138.913 3.01918Z" fill="#4294F0"/>
  </g>
  <defs>
    <clipPath id="clip0_1820_4529">
      <rect width="159" height="28" fill="white"/>
    </clipPath>
  </defs>
</svg>