<svg width="38" height="39" viewBox="0 0 38 39" fill="none" xmlns="http://www.w3.org/2000/svg">
<path d="M19.0019 0.727295C8.55946 0.727295 0.0939941 9.19625 0.0939941 19.643C0.0939941 30.089 8.55954 38.5587 19.0019 38.5587C29.4406 38.5587 37.9061 30.089 37.9061 19.6424C37.9061 9.19564 29.4406 0.727295 19.0019 0.727295Z" fill="#F85340"/>
<g clip-path="url(#clip0)">
<path d="M19.2233 7.37681L19.7298 11.4747C20.362 11.6395 20.9089 12.0146 21.2904 12.5206H23.2887C25.3411 12.5206 27.0049 14.1766 27.0049 16.2204C27.0049 18.2638 25.3415 19.9203 23.2887 19.9203H14.72C12.6676 19.9203 11.0038 18.2642 11.0038 16.2204C11.0038 14.177 12.6672 12.5206 14.72 12.5206H16.7183C17.1101 12.0009 17.6764 11.6192 18.3306 11.4617L18.8343 7.38518C18.2838 7.30339 17.8614 6.83046 17.8614 6.25927C17.8614 5.63054 18.3731 5.12085 19.0044 5.12085C19.6356 5.12085 20.1473 5.63054 20.1473 6.25927C20.1473 6.8134 19.7498 7.27506 19.2233 7.37681ZM11.0038 21.0587H27.0049V31.3044H11.0038V21.0587ZM22.1474 27.0354H18.6551V27.32H22.1474V27.0354ZM18.1895 27.0354H15.8613V27.32H18.1895V27.0354ZM21.576 25.897H19.2478V26.1816H21.576V25.897ZM21.576 27.6046H19.2478V27.8892H21.576V27.6046ZM19.8616 25.3277H17.5334V25.6123H19.8616V25.3277ZM17.6074 26.4811H15.8613V26.7657H17.6074V26.4811ZM17.6074 24.7585H15.8613V25.0431H17.6074V24.7585ZM22.1474 24.1893H20.4013V24.4739H22.1474V24.1893ZM19.0044 26.4811H18.0731V26.7657H19.0044V26.4811ZM20.7188 24.7585H19.7875V25.0431H20.7188V24.7585ZM18.5387 24.1893H17.6074V24.4739H18.5387V24.1893ZM21.2902 25.3277H20.3589V25.6123H21.2902V25.3277ZM22.1474 26.4811H21.2161V26.7657H22.1474V26.4811ZM22.1474 24.7585H21.2161V25.0431H22.1474V24.7585ZM19.9356 24.1893H19.0044V24.4739H19.9356V24.1893ZM18.7186 25.897H17.7873V26.1816H18.7186V25.897ZM18.7186 27.6046H17.7873V27.8892H18.7186V27.6046ZM20.7505 26.4811H19.47V26.7657H20.7505V26.4811ZM17.1418 24.1893H15.8613V24.4739H17.1418V24.1893ZM19.2901 24.7585H18.0096V25.0431H19.2901V24.7585ZM17.1418 25.897H15.8613V26.1816H17.1418V25.897ZM17.1418 27.6046H15.8613V27.8892H17.1418V27.6046ZM17.1418 25.3277H15.8613V25.6123H17.1418V25.3277ZM22.4332 17.3588C23.0644 17.3588 23.5761 16.8491 23.5761 16.2204C23.5761 15.5917 23.0644 15.082 22.4332 15.082C21.8019 15.082 21.2902 15.5917 21.2902 16.2204C21.2902 16.8491 21.8019 17.3588 22.4332 17.3588ZM15.5756 15.082C14.9443 15.082 14.4326 15.5917 14.4326 16.2204C14.4326 16.8491 14.9443 17.3588 15.5756 17.3588C16.2068 17.3588 16.7185 16.8491 16.7185 16.2204C16.7185 15.5917 16.2068 15.082 15.5756 15.082Z" fill="black"/>
</g>
<defs>
<clipPath id="clip0">
<rect width="16.0011" height="26.1836" fill="white" transform="translate(11.0038 5.12085)"/>
</clipPath>
</defs>
</svg>
