<?xml version="1.0" encoding="utf-8"?>
<!-- Generator: Adobe Illustrator 16.0.0, SVG Export Plug-In . SVG Version: 6.00 Build 0)  -->
<!DOCTYPE svg PUBLIC "-//W3C//DTD SVG 1.1//EN" "http://www.w3.org/Graphics/SVG/1.1/DTD/svg11.dtd">
<svg version="1.1" id="Layer_1" xmlns="http://www.w3.org/2000/svg" xmlns:xlink="http://www.w3.org/1999/xlink" x="0px" y="0px"
	 width="281.535px" height="21.93px" viewBox="0 7.226 281.535 21.93" enable-background="new 0 7.226 281.535 21.93"
	 xml:space="preserve">
<polygon fill="#FFFFFF" points="151.093,18.746 151.151,18.746 158.757,28.147 165.208,28.147 155.865,17.131 164.688,7.73 
	158.497,7.73 151.179,16.035 151.093,16.035 151.093,7.73 146.233,7.73 146.233,28.147 151.093,28.147 "/>
<path fill="#FFFFFF" d="M129.203,10.146c-1.002,0.939-1.788,2.077-2.356,3.414s-0.854,2.828-0.854,4.475
	c0,1.608,0.28,3.08,0.839,4.417s1.33,2.484,2.313,3.443c0.984,0.96,2.146,1.7,3.486,2.224c1.34,0.522,2.801,0.784,4.382,0.784
	c1.735,0,3.268-0.306,4.599-0.915c1.33-0.61,2.449-1.438,3.355-2.485l-3.442-3.254c-0.444,0.619-1.031,1.123-1.765,1.511
	c-0.732,0.388-1.59,0.581-2.574,0.581c-0.848,0-1.629-0.154-2.343-0.465c-0.714-0.31-1.326-0.74-1.836-1.294
	c-0.511-0.551-0.911-1.215-1.201-1.99c-0.289-0.775-0.434-1.627-0.434-2.557c0-0.91,0.145-1.748,0.434-2.513
	c0.29-0.765,0.694-1.429,1.215-1.991c0.521-0.562,1.142-1.002,1.865-1.322c0.723-0.32,1.518-0.479,2.387-0.479
	c0.79,0,1.562,0.155,2.313,0.465c0.752,0.31,1.36,0.784,1.822,1.424l3.355-3.371c-0.867-0.988-2-1.739-3.398-2.252
	c-1.398-0.513-2.82-0.77-4.267-0.77c-1.562,0-3.018,0.252-4.367,0.756C131.383,8.485,130.207,9.207,129.203,10.146z"/>
<path fill="#FFFFFF" d="M115.114,19.704V15.04c-1.053,0.131-2.109,0.262-3.162,0.393c-1.054,0.131-2.109,0.263-3.164,0.394v3.871
	v3.87c1.055,0.131,2.109,0.266,3.164,0.398c1.053,0.133,2.107,0.266,3.162,0.4V19.704z M114.102,22.098
	c-0.717-0.046-1.435-0.092-2.151-0.139c-0.717-0.045-1.434-0.091-2.15-0.138v-0.732c0.716,0.029,1.434,0.059,2.15,0.088
	c0.716,0.028,1.434,0.059,2.151,0.088V22.098z M114.102,20.333c-0.717-0.012-1.435-0.024-2.151-0.034
	c-0.717-0.01-1.434-0.021-2.15-0.033V19.38c0.716-0.01,1.434-0.02,2.15-0.029c0.716-0.01,1.434-0.017,2.151-0.026V20.333z
	 M114.102,17.896c-0.717,0.028-1.435,0.055-2.151,0.083c-0.717,0.028-1.434,0.057-2.15,0.085v-0.739
	c0.716-0.045,1.434-0.091,2.15-0.136c0.716-0.044,1.434-0.088,2.151-0.133V17.896z"/>
<path fill="#FFFFFF" d="M102.465,18.19c0,6.057,4.927,10.965,11.005,10.965c6.078,0,11.005-4.908,11.005-10.965
	c0-6.056-4.928-10.965-11.005-10.965C107.392,7.226,102.465,12.135,102.465,18.19z M107.777,19.636V14.77
	c0.809-0.132,1.618-0.264,2.427-0.395v-2.758l8.437-1.366v8.385c0.455,0.2,0.773,0.655,0.773,1.185c0,0.714-0.581,1.294-1.298,1.294
	c-0.718,0-1.3-0.58-1.3-1.294c0-0.53,0.32-0.985,0.775-1.185v-1.875v-5.01l-6.337,0.91v1.542l0.728-0.118
	c1.4-0.228,2.802-0.454,4.206-0.681v6.238v6.234c-1.403-0.229-2.805-0.46-4.206-0.69c-1.402-0.229-2.804-0.458-4.205-0.688V19.636z"
	/>
<path fill="#FFFFFF" d="M100.21,17.391c0.761-0.942,1.142-2.105,1.142-3.49c0-1.172-0.225-2.153-0.674-2.941
	c-0.448-0.789-1.049-1.423-1.8-1.904c-0.752-0.48-1.601-0.822-2.547-1.023c-0.947-0.202-1.917-0.303-2.913-0.303h-7.904v20.417
	h4.918v-8.104h1.698l4.479,8.104h5.856l-5.417-8.738C98.395,19.005,99.449,18.333,100.21,17.391z M96.052,15.333
	c-0.227,0.329-0.519,0.58-0.874,0.755c-0.355,0.174-0.75,0.295-1.185,0.362c-0.434,0.068-0.859,0.102-1.273,0.102H90.32v-4.789
	h2.695c0.375,0,0.766,0.029,1.17,0.087c0.404,0.058,0.77,0.169,1.096,0.334c0.326,0.165,0.593,0.397,0.799,0.697
	c0.208,0.3,0.311,0.692,0.311,1.175C96.392,14.578,96.279,15.004,96.052,15.333z"/>
<polygon fill="#FFFFFF" points="84.233,7.73 78.044,7.73 70.726,16.035 70.639,16.035 70.639,7.73 65.779,7.73 65.779,28.147 
	70.639,28.147 70.639,18.746 70.697,18.746 78.304,28.147 84.754,28.147 75.412,17.131 "/>
<path fill="#FFFFFF" d="M49.003,10.146c-1.002,0.939-1.788,2.077-2.357,3.414c-0.569,1.337-0.853,2.828-0.853,4.475
	c0,1.608,0.279,3.08,0.839,4.417c0.559,1.337,1.33,2.484,2.313,3.443c0.983,0.96,2.146,1.7,3.485,2.224
	c1.34,0.522,2.801,0.784,4.382,0.784c1.736,0,3.269-0.306,4.599-0.915c1.331-0.61,2.449-1.438,3.355-2.485l-3.442-3.254
	c-0.444,0.619-1.032,1.123-1.765,1.511c-0.733,0.388-1.591,0.581-2.574,0.581c-0.849,0-1.63-0.154-2.343-0.465
	c-0.713-0.31-1.326-0.74-1.837-1.294c-0.511-0.551-0.911-1.215-1.2-1.99c-0.289-0.775-0.434-1.627-0.434-2.557
	c0-0.91,0.145-1.748,0.434-2.513c0.29-0.765,0.694-1.429,1.215-1.991c0.521-0.562,1.143-1.002,1.866-1.322
	c0.723-0.32,1.519-0.479,2.386-0.479c0.791,0,1.562,0.155,2.314,0.465c0.752,0.31,1.36,0.784,1.822,1.424l3.355-3.371
	c-0.868-0.988-2-1.739-3.399-2.252c-1.397-0.513-2.82-0.77-4.267-0.77c-1.562,0-3.018,0.252-4.367,0.756
	C51.182,8.485,50.006,9.207,49.003,10.146z"/>
<path fill="#FFFFFF" d="M39.033,20.018c0,0.557-0.068,1.084-0.205,1.583s-0.36,0.945-0.671,1.338
	c-0.311,0.394-0.715,0.706-1.211,0.936c-0.496,0.229-1.094,0.346-1.794,0.346c-0.701,0-1.299-0.116-1.794-0.346
	c-0.496-0.229-0.895-0.542-1.196-0.936c-0.301-0.393-0.525-0.839-0.671-1.338c-0.146-0.499-0.219-1.026-0.219-1.583V7.73h-4.96
	v12.691c0,1.228,0.204,2.345,0.613,3.353c0.409,1.007,0.992,1.87,1.751,2.59c0.758,0.719,1.682,1.28,2.771,1.684
	c1.089,0.402,2.315,0.604,3.676,0.604c1.342,0,2.562-0.202,3.661-0.604c1.099-0.403,2.038-0.965,2.816-1.684
	c0.778-0.72,1.376-1.583,1.794-2.59c0.418-1.008,0.627-2.125,0.627-3.353V7.73h-4.989V20.018z"/>
<polygon fill="#FFFFFF" points="4.566,13.699 4.653,13.699 9.859,28.147 13.349,28.147 18.701,13.699 18.788,13.699 18.672,28.147 
	23.529,28.147 23.529,7.73 16.345,7.73 11.866,20.822 11.75,20.822 7.067,7.73 0,7.73 0,28.147 4.683,28.147 "/>
<path fill="#FFFFFF" d="M240.723,24.428c-0.492,0.52-1.02,0.93-1.586,1.23c-0.556,0.292-1.157,0.438-1.804,0.438
	c-0.885,0-1.545-0.26-1.982-0.779c-0.429-0.52-0.644-1.249-0.644-2.188v-8.873h-2.939v8.873c0,0.784,0.101,1.504,0.302,2.16
	c0.2,0.647,0.497,1.203,0.889,1.668c0.401,0.466,0.893,0.824,1.476,1.08c0.584,0.255,1.259,0.383,2.024,0.383
	c0.474,0,0.915-0.05,1.326-0.15c0.419-0.1,0.811-0.241,1.176-0.424c0.364-0.182,0.706-0.401,1.025-0.656
	c0.327-0.255,0.638-0.538,0.93-0.848l0.218,1.299c0.11,0.374,0.361,0.561,0.752,0.561h1.778V14.256h-2.94V24.428z"/>
<path fill="#FFFFFF" d="M269.101,25.468c-0.083,0-0.169,0.031-0.261,0.095c-0.081,0.055-0.182,0.119-0.301,0.191
	c-0.118,0.064-0.259,0.128-0.424,0.191c-0.163,0.055-0.359,0.082-0.587,0.082c-0.41,0-0.738-0.133-0.985-0.396
	c-0.246-0.265-0.369-0.646-0.369-1.148v-7.916h3.87v-2.119h-3.87v-4.58h-1.504c-0.182,0-0.328,0.05-0.437,0.15
	c-0.11,0.091-0.188,0.214-0.233,0.369l-0.643,4.033l-2.256,0.329v1.189c0,0.209,0.061,0.369,0.178,0.479
	c0.119,0.1,0.26,0.15,0.424,0.15h1.532v8.121c0,1.186,0.309,2.105,0.93,2.762c0.629,0.647,1.521,0.971,2.68,0.971
	c0.655,0,1.294-0.104,1.914-0.314c0.619-0.219,1.157-0.529,1.613-0.93l-0.876-1.435C269.396,25.558,269.264,25.468,269.101,25.468z"
	/>
<path fill="#FFFFFF" d="M281.233,22.418c-0.2-0.401-0.465-0.738-0.792-1.012c-0.328-0.283-0.703-0.52-1.122-0.71
	c-0.419-0.192-0.848-0.361-1.284-0.506c-0.439-0.146-0.867-0.282-1.286-0.41s-0.793-0.27-1.121-0.423
	c-0.328-0.165-0.593-0.356-0.793-0.575c-0.201-0.219-0.301-0.492-0.301-0.82c0-0.246,0.055-0.474,0.164-0.684
	c0.109-0.219,0.265-0.406,0.465-0.561c0.21-0.164,0.46-0.287,0.752-0.369c0.302-0.091,0.634-0.137,0.997-0.137
	c0.447,0,0.835,0.05,1.162,0.15c0.339,0.091,0.63,0.196,0.876,0.314c0.247,0.119,0.46,0.228,0.643,0.328
	c0.183,0.091,0.351,0.137,0.506,0.137c0.138,0,0.251-0.027,0.343-0.082c0.091-0.055,0.173-0.146,0.244-0.273l0.658-1.066
	c-0.521-0.52-1.162-0.93-1.929-1.231c-0.765-0.3-1.617-0.451-2.557-0.451c-0.829,0-1.563,0.114-2.201,0.342
	c-0.629,0.219-1.162,0.52-1.599,0.902c-0.43,0.383-0.757,0.825-0.986,1.326c-0.219,0.501-0.327,1.03-0.327,1.585
	c0,0.611,0.101,1.131,0.302,1.559c0.199,0.42,0.465,0.78,0.792,1.081c0.337,0.291,0.715,0.532,1.135,0.724
	c0.429,0.191,0.861,0.359,1.299,0.506c0.438,0.146,0.866,0.283,1.286,0.41c0.427,0.127,0.806,0.273,1.135,0.438
	c0.336,0.164,0.605,0.36,0.806,0.588c0.201,0.229,0.301,0.52,0.301,0.875c0,0.265-0.05,0.515-0.149,0.752
	c-0.101,0.228-0.256,0.433-0.465,0.616c-0.211,0.182-0.475,0.327-0.795,0.437c-0.318,0.101-0.695,0.15-1.134,0.15
	c-0.528,0-0.97-0.06-1.326-0.178c-0.354-0.128-0.661-0.265-0.916-0.409c-0.246-0.146-0.465-0.278-0.656-0.397
	c-0.183-0.128-0.368-0.191-0.561-0.191c-0.182,0-0.337,0.042-0.466,0.123c-0.117,0.072-0.217,0.178-0.299,0.314l-0.685,1.121
	c0.274,0.246,0.584,0.474,0.929,0.684c0.356,0.21,0.734,0.392,1.136,0.547c0.41,0.146,0.839,0.26,1.285,0.342
	c0.456,0.092,0.925,0.137,1.408,0.137c0.874,0,1.649-0.113,2.324-0.342c0.684-0.229,1.253-0.547,1.709-0.957
	s0.802-0.894,1.039-1.448c0.237-0.557,0.356-1.163,0.356-1.819C281.535,23.288,281.435,22.81,281.233,22.418z"/>
<path fill="#FFFFFF" d="M257.925,15.5c-0.392-0.464-0.881-0.824-1.464-1.08c-0.574-0.255-1.243-0.382-2.01-0.382
	c-0.482,0-0.93,0.05-1.34,0.15c-0.41,0.1-0.797,0.241-1.162,0.424c-0.363,0.182-0.711,0.401-1.039,0.656
	c-0.318,0.246-0.629,0.524-0.93,0.834l-0.205-1.285c-0.109-0.374-0.365-0.561-0.765-0.561h-1.778v13.945h2.94V18.043
	c0.491-0.52,1.016-0.93,1.571-1.23c0.565-0.301,1.176-0.451,1.832-0.451c0.884,0,1.541,0.26,1.969,0.779
	c0.438,0.52,0.656,1.249,0.656,2.188v8.873h2.927v-8.873c0-0.784-0.101-1.5-0.302-2.147C258.626,16.525,258.325,15.965,257.925,15.5
	z"/>
<path fill="#FFFFFF" d="M227.234,15.979c-0.583-0.62-1.294-1.098-2.133-1.436c-0.829-0.337-1.76-0.506-2.789-0.506
	c-1.038,0-1.978,0.168-2.816,0.506c-0.829,0.337-1.541,0.815-2.133,1.436c-0.592,0.62-1.049,1.372-1.367,2.256
	c-0.318,0.885-0.479,1.878-0.479,2.98s0.16,2.097,0.479,2.98s0.775,1.641,1.367,2.27c0.592,0.62,1.304,1.099,2.133,1.436
	c0.839,0.338,1.778,0.506,2.816,0.506c1.029,0,1.96-0.168,2.789-0.506c0.839-0.337,1.55-0.815,2.133-1.436
	c0.594-0.629,1.049-1.386,1.367-2.27c0.319-0.884,0.479-1.878,0.479-2.98s-0.16-2.096-0.479-2.98
	C228.283,17.35,227.828,16.598,227.234,15.979z M225.116,24.852c-0.611,0.838-1.546,1.258-2.804,1.258
	c-1.275,0-2.224-0.42-2.844-1.258c-0.619-0.848-0.93-2.056-0.93-3.624c0-1.567,0.311-2.775,0.93-3.623
	c0.62-0.857,1.568-1.285,2.844-1.285c1.258,0,2.192,0.428,2.804,1.285c0.619,0.848,0.929,2.056,0.929,3.623
	C226.045,22.796,225.735,24.004,225.116,24.852z"/>
<path fill="#FFFFFF" d="M199.881,24.824c-0.192,0-0.375,0.068-0.547,0.205c-0.165,0.137-0.364,0.287-0.602,0.451
	s-0.533,0.314-0.889,0.451s-0.815,0.205-1.381,0.205c-0.574,0-1.094-0.109-1.56-0.328c-0.455-0.219-0.847-0.537-1.175-0.957
	c-0.318-0.419-0.566-0.934-0.739-1.545c-0.172-0.61-0.259-1.308-0.259-2.092c0-0.757,0.077-1.436,0.231-2.037
	c0.164-0.611,0.405-1.126,0.726-1.545c0.327-0.428,0.729-0.757,1.203-0.984c0.482-0.228,1.043-0.342,1.682-0.342
	c0.492,0,0.902,0.055,1.229,0.165c0.329,0.109,0.606,0.232,0.835,0.369c0.236,0.127,0.438,0.246,0.601,0.355
	c0.174,0.109,0.337,0.164,0.493,0.164c0.154,0,0.273-0.032,0.355-0.096c0.081-0.064,0.169-0.155,0.26-0.273l0.778-1.066
	c-0.601-0.602-1.289-1.067-2.062-1.395c-0.767-0.328-1.655-0.492-2.667-0.492c-1.085,0-2.041,0.182-2.871,0.547
	c-0.83,0.355-1.527,0.852-2.092,1.49c-0.557,0.638-0.98,1.399-1.271,2.283c-0.293,0.875-0.438,1.827-0.438,2.857
	c0,1.14,0.16,2.156,0.479,3.049c0.328,0.884,0.771,1.636,1.327,2.256c0.564,0.61,1.221,1.08,1.969,1.408
	c0.757,0.319,1.567,0.479,2.433,0.479c0.502,0,0.999-0.041,1.491-0.123c0.492-0.072,0.966-0.196,1.422-0.369
	c0.456-0.182,0.889-0.414,1.299-0.696c0.41-0.283,0.783-0.63,1.12-1.04l-0.833-1.08C200.3,24.916,200.118,24.824,199.881,24.824z"/>
<path fill="#FFFFFF" d="M185.731,15.486c-0.419-0.474-0.942-0.839-1.572-1.094c-0.619-0.265-1.33-0.396-2.133-0.396
	c-2.179,0-4.057,0.733-5.632,2.201l0.533,0.957c0.09,0.155,0.205,0.287,0.342,0.396c0.146,0.1,0.318,0.15,0.519,0.15
	c0.247,0,0.479-0.068,0.697-0.205c0.219-0.146,0.471-0.301,0.753-0.465c0.281-0.164,0.614-0.314,0.997-0.452
	c0.383-0.145,0.856-0.218,1.423-0.218c0.829,0,1.458,0.246,1.887,0.738c0.427,0.492,0.643,1.24,0.643,2.242v0.93
	c-1.586,0.036-2.922,0.187-4.006,0.451c-1.076,0.264-1.947,0.602-2.612,1.012c-0.656,0.401-1.13,0.856-1.422,1.367
	c-0.282,0.511-0.424,1.034-0.424,1.572c0,0.629,0.101,1.176,0.301,1.641c0.21,0.465,0.493,0.856,0.849,1.177
	c0.354,0.31,0.774,0.542,1.257,0.696c0.492,0.155,1.021,0.232,1.586,0.232c0.511,0,0.976-0.045,1.396-0.137
	c0.428-0.082,0.824-0.209,1.188-0.383c0.374-0.173,0.734-0.383,1.08-0.629c0.347-0.255,0.697-0.542,1.053-0.861l0.288,1.135
	c0.101,0.265,0.223,0.441,0.369,0.533c0.146,0.082,0.359,0.123,0.642,0.123h1.313v-8.86c0-0.792-0.115-1.513-0.342-2.16
	C186.483,16.525,186.16,15.96,185.731,15.486z M184.188,24.688c-0.521,0.547-1.058,0.966-1.614,1.258
	c-0.547,0.282-1.202,0.424-1.969,0.424c-0.301,0-0.578-0.032-0.833-0.096c-0.247-0.073-0.465-0.183-0.657-0.328
	c-0.182-0.155-0.327-0.346-0.437-0.574c-0.101-0.236-0.151-0.52-0.151-0.848c0-0.337,0.096-0.647,0.288-0.93
	c0.2-0.282,0.523-0.524,0.97-0.725c0.447-0.21,1.031-0.378,1.75-0.506c0.721-0.137,1.604-0.224,2.653-0.26V24.688z"/>
<path fill="#FFFFFF" d="M212.778,24.824c-0.19,0-0.373,0.068-0.547,0.205c-0.164,0.137-0.364,0.287-0.602,0.451
	c-0.236,0.164-0.533,0.314-0.889,0.451s-0.816,0.205-1.381,0.205c-0.575,0-1.094-0.109-1.559-0.328
	c-0.455-0.219-0.848-0.537-1.177-0.957c-0.318-0.419-0.563-0.934-0.737-1.545c-0.173-0.61-0.26-1.308-0.26-2.092
	c0-0.757,0.077-1.436,0.232-2.037c0.164-0.611,0.406-1.126,0.726-1.545c0.327-0.428,0.729-0.757,1.202-0.984
	c0.483-0.228,1.044-0.342,1.681-0.342c0.493,0,0.903,0.055,1.23,0.165c0.329,0.109,0.607,0.232,0.835,0.369
	c0.236,0.127,0.438,0.246,0.602,0.355c0.173,0.109,0.338,0.164,0.491,0.164c0.156,0,0.273-0.032,0.356-0.096
	s0.169-0.155,0.259-0.273l0.781-1.066c-0.603-0.602-1.291-1.067-2.065-1.395c-0.766-0.328-1.654-0.492-2.666-0.492
	c-1.085,0-2.042,0.182-2.872,0.547c-0.828,0.355-1.525,0.852-2.091,1.49c-0.557,0.638-0.979,1.399-1.272,2.283
	c-0.29,0.875-0.437,1.827-0.437,2.857c0,1.14,0.159,2.156,0.479,3.049c0.328,0.884,0.77,1.636,1.325,2.256
	c0.566,0.61,1.223,1.08,1.97,1.408c0.757,0.319,1.567,0.479,2.434,0.479c0.501,0,0.998-0.041,1.49-0.123
	c0.492-0.072,0.966-0.196,1.422-0.369c0.456-0.182,0.888-0.414,1.298-0.696c0.411-0.283,0.785-0.63,1.122-1.04l-0.834-1.08
	C213.198,24.916,213.016,24.824,212.778,24.824z"/>
</svg>
