<?xml version="1.0" encoding="utf-8"?>
<!-- Generator: Adobe Illustrator 16.0.0, SVG Export Plug-In . SVG Version: 6.00 Build 0)  -->
<!DOCTYPE svg PUBLIC "-//W3C//DTD SVG 1.1//EN" "http://www.w3.org/Graphics/SVG/1.1/DTD/svg11.dtd">
<svg version="1.1" id="Layer_1" xmlns="http://www.w3.org/2000/svg" xmlns:xlink="http://www.w3.org/1999/xlink" x="0px" y="0px"
	 width="23px" height="24px" viewBox="0 0 23 24" enable-background="new 0 0 23 24" xml:space="preserve">
<g>
	<path fill="none" stroke="#899196" stroke-width="2.5152" stroke-miterlimit="10" d="M11.248,11.221
		c0.695,1.297,2.054,2.185,3.628,2.185c1.694,0,3.15-1.023,3.784-2.485c0.218-0.503,0.339-1.056,0.339-1.639
		c0-2.277-1.846-4.124-4.123-4.124c-0.316,0-0.621,0.043-0.917,0.11"/>
	<path fill="none" stroke="#899196" stroke-width="2.5152" stroke-miterlimit="10" d="M14.876,22.557h5.483
		c0.315-0.736,0.491-1.547,0.491-2.398c0-3.334-2.675-6.039-5.975-6.039c-0.309,0-0.609,0.031-0.906,0.077"/>
	<path fill="none" stroke="#899196" stroke-width="2.5152" stroke-miterlimit="10" d="M9.212,11.663
		c0.727,0,1.414-0.162,2.036-0.442c-0.053-0.1-0.112-0.196-0.157-0.3c-0.218-0.502-0.339-1.056-0.339-1.639
		c0-1.96,1.372-3.595,3.207-4.013c-0.613-2.053-2.494-3.56-4.747-3.56c-2.749,0-4.977,2.229-4.977,4.977
		c0,0.703,0.146,1.371,0.409,1.978C5.409,10.428,7.166,11.663,9.212,11.663z"/>
	<path fill="none" stroke="#899196" stroke-width="2.5152" stroke-miterlimit="10" d="M13.97,14.196
		c-1.271-1.13-2.933-1.821-4.758-1.821C5.229,12.375,2,15.638,2,19.661c0,1.029,0.212,2.007,0.593,2.896h6.619h0.18
		C9.076,21.82,8.9,21.01,8.9,20.158C8.9,17.137,11.101,14.639,13.97,14.196z"/>
	<path fill="none" stroke="#899196" stroke-width="2.5152" stroke-miterlimit="10" d="M9.392,22.557h5.484"/>
</g>
</svg>
